<svg width="273" height="241" viewBox="0 0 273 241" fill="none" xmlns="http://www.w3.org/2000/svg">
<g opacity="0.23">
<path d="M242.336 1.83655C242.833 1.83655 243.236 1.43403 243.236 0.937076C243.236 0.440121 242.833 0.0375977 242.336 0.0375977C241.84 0.0375977 241.437 0.440121 241.437 0.937076C241.437 1.43403 241.84 1.83655 242.336 1.83655Z" fill="white"/>
<path d="M242.337 18.5116C243.234 18.5116 243.962 17.7837 243.962 16.8857C243.962 15.9877 243.234 15.2598 242.337 15.2598C241.439 15.2598 240.711 15.9877 240.711 16.8857C240.711 17.7837 241.439 18.5116 242.337 18.5116Z" fill="white"/>
<path d="M242.337 35.0462C243.558 35.0462 244.549 34.0555 244.549 32.8336C244.549 31.6118 243.558 30.6211 242.337 30.6211C241.115 30.6211 240.124 31.6118 240.124 32.8336C240.123 34.0555 241.114 35.0462 242.337 35.0462Z" fill="white"/>
<path d="M242.336 51.4689C243.82 51.4689 245.023 50.2661 245.023 48.782C245.023 47.298 243.82 46.0952 242.336 46.0952C240.852 46.0952 239.65 47.298 239.65 48.782C239.65 50.2661 240.852 51.4689 242.336 51.4689Z" fill="white"/>
<path d="M242.337 67.7975C244.031 67.7975 245.404 66.4242 245.404 64.7303C245.404 63.0363 244.031 61.6631 242.337 61.6631C240.643 61.6631 239.269 63.0363 239.269 64.7303C239.269 66.4242 240.643 67.7975 242.337 67.7975Z" fill="white"/>
<path d="M242.337 84.0412C244.193 84.0412 245.699 82.5355 245.699 80.6785C245.699 78.8216 244.193 77.3159 242.337 77.3159C240.48 77.3159 238.974 78.8216 238.974 80.6785C238.974 82.5355 240.479 84.0412 242.337 84.0412Z" fill="white"/>
<path d="M242.337 100.204C244.312 100.204 245.914 98.6023 245.914 96.6267C245.914 94.651 244.312 93.0493 242.337 93.0493C240.361 93.0493 238.759 94.651 238.759 96.6267C238.759 98.6023 240.36 100.204 242.337 100.204Z" fill="white"/>
<path d="M242.337 116.292C244.39 116.292 246.054 114.627 246.054 112.575C246.054 110.522 244.39 108.857 242.337 108.857C240.284 108.857 238.62 110.522 238.62 112.575C238.62 114.627 240.284 116.292 242.337 116.292Z" fill="white"/>
<path d="M242.337 132.309C244.428 132.309 246.123 130.614 246.123 128.523C246.123 126.432 244.428 124.737 242.337 124.737C240.245 124.737 238.55 126.432 238.55 128.523C238.55 130.614 240.245 132.309 242.337 132.309Z" fill="white"/>
<path d="M242.337 140.683C240.244 140.683 238.548 142.379 238.548 144.471C238.548 146.563 240.244 148.259 242.337 148.259C244.429 148.259 246.125 146.563 246.125 144.471C246.125 142.379 244.429 140.683 242.337 140.683Z" fill="white"/>
<path d="M242.337 164.143C244.393 164.143 246.06 162.476 246.06 160.42C246.06 158.364 244.393 156.697 242.337 156.697C240.28 156.697 238.614 158.364 238.614 160.42C238.614 162.476 240.28 164.143 242.337 164.143Z" fill="white"/>
<path d="M242.337 179.954C244.317 179.954 245.922 178.348 245.922 176.368C245.922 174.388 244.317 172.782 242.337 172.782C240.356 172.782 238.751 174.388 238.751 176.368C238.751 178.348 240.356 179.954 242.337 179.954Z" fill="white"/>
<path d="M242.337 188.944C240.474 188.944 238.964 190.454 238.964 192.316C238.964 194.179 240.474 195.689 242.337 195.689C244.199 195.689 245.709 194.179 245.709 192.316C245.709 190.454 244.199 188.944 242.337 188.944Z" fill="white"/>
<path d="M242.337 211.343C244.037 211.343 245.415 209.964 245.415 208.264C245.415 206.564 244.037 205.186 242.337 205.186C240.637 205.186 239.258 206.564 239.258 208.264C239.258 209.964 240.637 211.343 242.337 211.343Z" fill="white"/>
<path d="M242.337 226.91C243.826 226.91 245.034 225.702 245.034 224.213C245.034 222.723 243.826 221.515 242.337 221.515C240.847 221.515 239.639 222.723 239.639 224.213C239.639 225.702 240.847 226.91 242.337 226.91Z" fill="white"/>
<path d="M242.337 237.938C241.108 237.938 240.113 238.933 240.113 240.161C240.113 241.389 241.109 242.385 242.337 242.385C243.565 242.385 244.56 241.389 244.56 240.161C244.56 238.933 243.564 237.938 242.337 237.938Z" fill="white"/>
<path d="M253.325 1.79864C253.801 1.79864 254.186 1.413 254.186 0.937671C254.186 0.461819 253.8 0.0761719 253.325 0.0761719C252.849 0.0761719 252.464 0.461819 252.464 0.937671C252.464 1.413 252.85 1.79864 253.325 1.79864Z" fill="white"/>
<path d="M253.325 18.4423C254.185 18.4423 254.882 17.7449 254.882 16.885C254.882 16.0251 254.185 15.3276 253.325 15.3276C252.465 15.3276 251.768 16.0251 251.768 16.885C251.768 17.7449 252.465 18.4423 253.325 18.4423Z" fill="white"/>
<path d="M253.325 34.9521C254.495 34.9521 255.444 34.0036 255.444 32.8335C255.444 31.6634 254.495 30.7148 253.325 30.7148C252.155 30.7148 251.206 31.6634 251.206 32.8335C251.206 34.0036 252.155 34.9521 253.325 34.9521Z" fill="white"/>
<path d="M253.325 51.3542C254.746 51.3542 255.898 50.2023 255.898 48.7814C255.898 47.3604 254.746 46.2085 253.325 46.2085C251.904 46.2085 250.752 47.3604 250.752 48.7814C250.752 50.2023 251.904 51.3542 253.325 51.3542Z" fill="white"/>
<path d="M253.325 67.6673C254.947 67.6673 256.262 66.3522 256.262 64.7299C256.262 63.1076 254.947 61.7925 253.325 61.7925C251.703 61.7925 250.388 63.1076 250.388 64.7299C250.388 66.3522 251.703 67.6673 253.325 67.6673Z" fill="white"/>
<path d="M253.325 83.8984C255.103 83.8984 256.545 82.4566 256.545 80.6782C256.545 78.8997 255.103 77.458 253.325 77.458C251.546 77.458 250.105 78.8997 250.105 80.6782C250.105 82.4566 251.546 83.8984 253.325 83.8984Z" fill="white"/>
<path d="M253.325 100.052C255.217 100.052 256.75 98.5184 256.75 96.6266C256.75 94.7348 255.217 93.2012 253.325 93.2012C251.433 93.2012 249.9 94.7348 249.9 96.6266C249.9 98.5184 251.433 100.052 253.325 100.052Z" fill="white"/>
<path d="M253.325 116.134C255.291 116.134 256.884 114.541 256.884 112.575C256.884 110.609 255.291 109.016 253.325 109.016C251.359 109.016 249.766 110.609 249.766 112.575C249.766 114.541 251.359 116.134 253.325 116.134Z" fill="white"/>
<path d="M253.325 132.15C255.327 132.15 256.951 130.526 256.951 128.524C256.951 126.521 255.327 124.897 253.325 124.897C251.322 124.897 249.698 126.521 249.698 128.524C249.699 130.526 251.322 132.15 253.325 132.15Z" fill="white"/>
<path d="M253.325 140.843C251.321 140.843 249.697 142.468 249.697 144.472C249.697 146.475 251.321 148.1 253.325 148.1C255.329 148.1 256.954 146.476 256.954 144.472C256.954 142.468 255.329 140.843 253.325 140.843Z" fill="white"/>
<path d="M253.325 156.854C251.356 156.854 249.76 158.451 249.76 160.42C249.76 162.389 251.356 163.985 253.325 163.985C255.294 163.985 256.89 162.389 256.89 160.42C256.89 158.451 255.294 156.854 253.325 156.854Z" fill="white"/>
<path d="M253.325 179.802C255.221 179.802 256.759 178.264 256.759 176.368C256.759 174.471 255.221 172.934 253.325 172.934C251.428 172.934 249.891 174.471 249.891 176.368C249.891 178.264 251.428 179.802 253.325 179.802Z" fill="white"/>
<path d="M253.325 195.546C255.109 195.546 256.555 194.1 256.555 192.316C256.555 190.532 255.109 189.086 253.325 189.086C251.541 189.086 250.095 190.532 250.095 192.316C250.095 194.1 251.541 195.546 253.325 195.546Z" fill="white"/>
<path d="M253.325 211.212C254.953 211.212 256.273 209.892 256.273 208.264C256.273 206.636 254.953 205.316 253.325 205.316C251.697 205.316 250.377 206.636 250.377 208.264C250.377 209.892 251.697 211.212 253.325 211.212Z" fill="white"/>
<path d="M253.325 226.795C254.751 226.795 255.908 225.639 255.908 224.212C255.908 222.786 254.751 221.629 253.325 221.629C251.898 221.629 250.742 222.786 250.742 224.212C250.742 225.639 251.898 226.795 253.325 226.795Z" fill="white"/>
<path d="M253.325 242.29C254.501 242.29 255.454 241.337 255.454 240.161C255.454 238.985 254.501 238.032 253.325 238.032C252.149 238.032 251.196 238.985 251.196 240.161C251.196 241.337 252.149 242.29 253.325 242.29Z" fill="white"/>
<path d="M264.314 1.76022C264.769 1.76022 265.137 1.39199 265.137 0.937239C265.137 0.482488 264.769 0.114258 264.314 0.114258C263.859 0.114258 263.491 0.482488 263.491 0.937239C263.491 1.39146 263.859 1.76022 264.314 1.76022Z" fill="white"/>
<path d="M264.314 18.3734C265.136 18.3734 265.802 17.7071 265.802 16.8852C265.802 16.0633 265.136 15.397 264.314 15.397C263.492 15.397 262.826 16.0633 262.826 16.8852C262.826 17.7071 263.492 18.3734 264.314 18.3734Z" fill="white"/>
<path d="M264.314 34.8582C265.432 34.8582 266.339 33.9513 266.339 32.8329C266.339 31.7145 265.432 30.8076 264.314 30.8076C263.195 30.8076 262.289 31.7145 262.289 32.8329C262.289 33.9518 263.195 34.8582 264.314 34.8582Z" fill="white"/>
<path d="M264.314 51.2405C265.672 51.2405 266.772 50.14 266.772 48.7821C266.772 47.4242 265.672 46.3237 264.314 46.3237C262.956 46.3237 261.855 47.4242 261.855 48.7821C261.855 50.1395 262.956 51.2405 264.314 51.2405Z" fill="white"/>
<path d="M264.314 67.5381C265.864 67.5381 267.122 66.281 267.122 64.7305C267.122 63.18 265.864 61.9229 264.314 61.9229C262.764 61.9229 261.506 63.18 261.506 64.7305C261.506 66.281 262.764 67.5381 264.314 67.5381Z" fill="white"/>
<path d="M264.314 83.7561C266.014 83.7561 267.392 82.3781 267.392 80.6783C267.392 78.9785 266.014 77.6006 264.314 77.6006C262.614 77.6006 261.236 78.9785 261.236 80.6783C261.236 82.3781 262.614 83.7561 264.314 83.7561Z" fill="white"/>
<path d="M264.314 99.8999C266.122 99.8999 267.587 98.4344 267.587 96.6265C267.587 94.8186 266.122 93.353 264.314 93.353C262.506 93.353 261.04 94.8186 261.04 96.6265C261.04 98.4344 262.506 99.8999 264.314 99.8999Z" fill="white"/>
<path d="M264.314 115.977C266.193 115.977 267.716 114.454 267.716 112.575C267.716 110.696 266.193 109.173 264.314 109.173C262.435 109.173 260.912 110.696 260.912 112.575C260.912 114.454 262.435 115.977 264.314 115.977Z" fill="white"/>
<path d="M264.314 131.99C266.228 131.99 267.78 130.438 267.78 128.524C267.78 126.609 266.228 125.058 264.314 125.058C262.4 125.058 260.848 126.609 260.848 128.524C260.848 130.438 262.4 131.99 264.314 131.99Z" fill="white"/>
<path d="M264.314 141.003C262.398 141.003 260.846 142.556 260.846 144.472C260.846 146.387 262.398 147.94 264.314 147.94C266.229 147.94 267.782 146.387 267.782 144.472C267.782 142.557 266.229 141.003 264.314 141.003Z" fill="white"/>
<path d="M264.314 157.013C262.432 157.013 260.907 158.538 260.907 160.42C260.907 162.302 262.432 163.827 264.314 163.827C266.196 163.827 267.721 162.302 267.721 160.42C267.721 158.538 266.195 157.013 264.314 157.013Z" fill="white"/>
<path d="M264.314 173.087C262.502 173.087 261.032 174.556 261.032 176.368C261.032 178.18 262.502 179.65 264.314 179.65C266.126 179.65 267.595 178.18 267.595 176.368C267.595 174.556 266.126 173.087 264.314 173.087Z" fill="white"/>
<path d="M264.314 195.403C266.019 195.403 267.401 194.021 267.401 192.316C267.401 190.611 266.019 189.229 264.314 189.229C262.609 189.229 261.227 190.611 261.227 192.316C261.227 194.021 262.609 195.403 264.314 195.403Z" fill="white"/>
<path d="M264.314 205.447C262.758 205.447 261.496 206.708 261.496 208.264C261.496 209.821 262.758 211.082 264.314 211.082C265.87 211.082 267.132 209.821 267.132 208.264C267.132 206.708 265.87 205.447 264.314 205.447Z" fill="white"/>
<path d="M264.314 221.744C262.951 221.744 261.845 222.849 261.845 224.213C261.845 225.576 262.951 226.681 264.314 226.681C265.677 226.681 266.782 225.576 266.782 224.213C266.782 222.849 265.677 221.744 264.314 221.744Z" fill="white"/>
<path d="M264.314 238.126C263.19 238.126 262.279 239.037 262.279 240.161C262.279 241.284 263.19 242.196 264.314 242.196C265.438 242.196 266.349 241.284 266.349 240.161C266.349 239.037 265.438 238.126 264.314 238.126Z" fill="white"/>
<path d="M275.302 51.1259C276.597 51.1259 277.647 50.0763 277.647 48.7815C277.647 47.4867 276.597 46.437 275.302 46.437C274.008 46.437 272.958 47.4867 272.958 48.7815C272.958 50.0763 274.008 51.1259 275.302 51.1259Z" fill="white"/>
<path d="M275.302 67.4079C276.781 67.4079 277.98 66.209 277.98 64.7301C277.98 63.2512 276.781 62.0522 275.302 62.0522C273.823 62.0522 272.624 63.2512 272.624 64.7301C272.624 66.209 273.823 67.4079 275.302 67.4079Z" fill="white"/>
<path d="M275.302 83.6138C276.923 83.6138 278.238 82.2996 278.238 80.6785C278.238 79.0573 276.923 77.7432 275.302 77.7432C273.681 77.7432 272.367 79.0573 272.367 80.6785C272.367 82.2996 273.681 83.6138 275.302 83.6138Z" fill="white"/>
<path d="M275.302 99.7484C277.026 99.7484 278.424 98.3509 278.424 96.6269C278.424 94.9029 277.026 93.5054 275.302 93.5054C273.578 93.5054 272.181 94.9029 272.181 96.6269C272.181 98.3509 273.578 99.7484 275.302 99.7484Z" fill="white"/>
<path d="M275.302 115.819C277.094 115.819 278.546 114.367 278.546 112.575C278.546 110.783 277.094 109.331 275.302 109.331C273.511 109.331 272.058 110.783 272.058 112.575C272.058 114.367 273.511 115.819 275.302 115.819Z" fill="white"/>
<path d="M275.302 131.829C277.128 131.829 278.608 130.349 278.608 128.523C278.608 126.698 277.128 125.218 275.302 125.218C273.477 125.218 271.997 126.698 271.997 128.523C271.997 130.349 273.477 131.829 275.302 131.829Z" fill="white"/>
<path d="M275.302 141.164C273.475 141.164 271.995 142.644 271.995 144.471C271.995 146.298 273.475 147.779 275.302 147.779C277.129 147.779 278.61 146.298 278.61 144.471C278.61 142.644 277.13 141.164 275.302 141.164Z" fill="white"/>
<path d="M275.302 163.668C277.096 163.668 278.551 162.214 278.551 160.42C278.551 158.625 277.096 157.171 275.302 157.171C273.508 157.171 272.054 158.625 272.054 160.42C272.054 162.214 273.508 163.668 275.302 163.668Z" fill="white"/>
<path d="M275.302 173.239C273.574 173.239 272.173 174.64 272.173 176.368C272.173 178.096 273.574 179.497 275.302 179.497C277.03 179.497 278.431 178.096 278.431 176.368C278.431 174.64 277.03 173.239 275.302 173.239Z" fill="white"/>
<path d="M275.302 189.372C273.676 189.372 272.358 190.69 272.358 192.316C272.358 193.942 273.676 195.261 275.302 195.261C276.929 195.261 278.247 193.942 278.247 192.316C278.247 190.69 276.929 189.372 275.302 189.372Z" fill="white"/>
<path d="M275.302 210.952C276.787 210.952 277.99 209.749 277.99 208.265C277.99 206.781 276.787 205.578 275.302 205.578C273.818 205.578 272.615 206.781 272.615 208.265C272.615 209.749 273.818 210.952 275.302 210.952Z" fill="white"/>
<path d="M275.302 221.859C274.002 221.859 272.949 222.913 272.949 224.213C272.949 225.513 274.002 226.566 275.302 226.566C276.602 226.566 277.656 225.513 277.656 224.213C277.656 222.913 276.602 221.859 275.302 221.859Z" fill="white"/>
<path d="M231.348 1.87492C231.866 1.87492 232.285 1.45499 232.285 0.937465C232.285 0.419409 231.865 0 231.348 0C230.83 0 230.41 0.419936 230.41 0.937465C230.41 1.45499 230.83 1.87492 231.348 1.87492Z" fill="white"/>
<path d="M231.348 18.58C232.284 18.58 233.043 17.8209 233.043 16.885C233.043 15.9491 232.284 15.1899 231.348 15.1899C230.411 15.1899 229.653 15.9491 229.653 16.885C229.653 17.8214 230.411 18.58 231.348 18.58Z" fill="white"/>
<path d="M231.348 35.1403C232.622 35.1403 233.654 34.1078 233.654 32.8338C233.654 31.5598 232.621 30.5273 231.348 30.5273C230.074 30.5273 229.041 31.5603 229.041 32.8338C229.041 34.1073 230.074 35.1403 231.348 35.1403Z" fill="white"/>
<path d="M231.348 51.583C232.894 51.583 234.148 50.329 234.148 48.7822C234.148 47.2354 232.894 45.9814 231.348 45.9814C229.801 45.9814 228.547 47.2354 228.547 48.7822C228.547 50.329 229.801 51.583 231.348 51.583Z" fill="white"/>
<path d="M231.348 67.9271C233.113 67.9271 234.545 66.4959 234.545 64.7302C234.545 62.9645 233.113 61.5332 231.348 61.5332C229.582 61.5332 228.151 62.9645 228.151 64.7302C228.151 66.4959 229.582 67.9271 231.348 67.9271Z" fill="white"/>
<path d="M231.348 84.1835C233.283 84.1835 234.853 82.6145 234.853 80.6784C234.853 78.7423 233.284 77.1733 231.348 77.1733C229.412 77.1733 227.843 78.7423 227.843 80.6784C227.843 82.6145 229.412 84.1835 231.348 84.1835Z" fill="white"/>
<path d="M231.348 100.356C233.407 100.356 235.077 98.6868 235.077 96.6272C235.077 94.5677 233.407 92.8979 231.348 92.8979C229.288 92.8979 227.618 94.5677 227.618 96.6272C227.618 98.6868 229.288 100.356 231.348 100.356Z" fill="white"/>
<path d="M231.348 116.45C233.488 116.45 235.223 114.715 235.223 112.575C235.223 110.435 233.487 108.7 231.348 108.7C229.208 108.7 227.473 110.435 227.473 112.575C227.473 114.715 229.207 116.45 231.348 116.45Z" fill="white"/>
<path d="M231.348 132.469C233.527 132.469 235.294 130.703 235.294 128.523C235.294 126.343 233.527 124.576 231.348 124.576C229.168 124.576 227.401 126.343 227.401 128.523C227.401 130.703 229.168 132.469 231.348 132.469Z" fill="white"/>
<path d="M231.348 140.522C229.167 140.522 227.399 142.29 227.399 144.471C227.399 146.652 229.167 148.42 231.348 148.42C233.529 148.42 235.296 146.652 235.296 144.471C235.296 142.29 233.529 140.522 231.348 140.522Z" fill="white"/>
<path d="M231.348 156.539C229.204 156.539 227.466 158.276 227.466 160.42C227.466 162.563 229.204 164.301 231.348 164.301C233.491 164.301 235.229 162.563 235.229 160.42C235.229 158.276 233.491 156.539 231.348 156.539Z" fill="white"/>
<path d="M231.348 172.629C229.283 172.629 227.609 174.303 227.609 176.368C227.609 178.432 229.283 180.106 231.348 180.106C233.412 180.106 235.086 178.432 235.086 176.368C235.086 174.303 233.412 172.629 231.348 172.629Z" fill="white"/>
<path d="M231.348 195.832C233.289 195.832 234.863 194.258 234.863 192.316C234.863 190.375 233.289 188.801 231.348 188.801C229.406 188.801 227.832 190.375 227.832 192.316C227.832 194.258 229.406 195.832 231.348 195.832Z" fill="white"/>
<path d="M231.348 205.057C229.576 205.057 228.14 206.493 228.14 208.265C228.14 210.036 229.576 211.473 231.348 211.473C233.119 211.473 234.556 210.036 234.556 208.265C234.556 206.493 233.119 205.057 231.348 205.057Z" fill="white"/>
<path d="M231.348 221.4C229.794 221.4 228.536 222.659 228.536 224.212C228.536 225.765 229.794 227.024 231.348 227.024C232.901 227.024 234.159 225.765 234.159 224.212C234.159 222.659 232.901 221.4 231.348 221.4Z" fill="white"/>
<path d="M231.348 237.844C230.067 237.844 229.03 238.881 229.03 240.161C229.03 241.441 230.068 242.479 231.348 242.479C232.628 242.479 233.665 241.441 233.665 240.161C233.665 238.881 232.628 237.844 231.348 237.844Z" fill="white"/>
<path d="M220.359 1.83655C220.856 1.83655 221.258 1.43403 221.258 0.937076C221.258 0.440121 220.856 0.0375977 220.359 0.0375977C219.862 0.0375977 219.459 0.440121 219.459 0.937076C219.46 1.43403 219.862 1.83655 220.359 1.83655Z" fill="white"/>
<path d="M220.359 18.5116C221.257 18.5116 221.985 17.7837 221.985 16.8857C221.985 15.9877 221.257 15.2598 220.359 15.2598C219.461 15.2598 218.733 15.9877 218.733 16.8857C218.733 17.7837 219.461 18.5116 220.359 18.5116Z" fill="white"/>
<path d="M220.359 35.0462C221.581 35.0462 222.571 34.0556 222.571 32.8336C222.571 31.6117 221.581 30.6211 220.359 30.6211C219.137 30.6211 218.146 31.6117 218.146 32.8336C218.146 34.0556 219.137 35.0462 220.359 35.0462Z" fill="white"/>
<path d="M220.359 51.4689C221.843 51.4689 223.046 50.2659 223.046 48.782C223.046 47.2982 221.843 46.0952 220.359 46.0952C218.875 46.0952 217.672 47.2982 217.672 48.782C217.672 50.2659 218.875 51.4689 220.359 51.4689Z" fill="white"/>
<path d="M220.359 67.7975C222.053 67.7975 223.426 66.4242 223.426 64.7303C223.426 63.0363 222.053 61.6631 220.359 61.6631C218.665 61.6631 217.292 63.0363 217.292 64.7303C217.292 66.4242 218.665 67.7975 220.359 67.7975Z" fill="white"/>
<path d="M220.359 84.0412C222.216 84.0412 223.721 82.5357 223.721 80.6785C223.721 78.8214 222.216 77.3159 220.359 77.3159C218.502 77.3159 216.996 78.8214 216.996 80.6785C216.996 82.5357 218.502 84.0412 220.359 84.0412Z" fill="white"/>
<path d="M220.359 100.204C222.334 100.204 223.936 98.6024 223.936 96.6267C223.936 94.6509 222.334 93.0493 220.359 93.0493C218.383 93.0493 216.781 94.6509 216.781 96.6267C216.781 98.6024 218.383 100.204 220.359 100.204Z" fill="white"/>
<path d="M220.359 116.292C222.412 116.292 224.076 114.627 224.076 112.575C224.076 110.522 222.412 108.857 220.359 108.857C218.306 108.857 216.642 110.522 216.642 112.575C216.642 114.627 218.306 116.292 220.359 116.292Z" fill="white"/>
<path d="M220.359 132.309C222.45 132.309 224.145 130.614 224.145 128.523C224.145 126.432 222.45 124.737 220.359 124.737C218.268 124.737 216.573 126.432 216.573 128.523C216.573 130.614 218.268 132.309 220.359 132.309Z" fill="white"/>
<path d="M220.359 148.259C222.451 148.259 224.147 146.563 224.147 144.471C224.147 142.379 222.451 140.683 220.359 140.683C218.267 140.683 216.57 142.379 216.57 144.471C216.57 146.563 218.267 148.259 220.359 148.259Z" fill="white"/>
<path d="M220.359 156.697C218.302 156.697 216.636 158.364 216.636 160.42C216.636 162.476 218.303 164.143 220.359 164.143C222.415 164.143 224.082 162.476 224.082 160.42C224.082 158.363 222.415 156.697 220.359 156.697Z" fill="white"/>
<path d="M220.359 172.782C218.378 172.782 216.773 174.387 216.773 176.368C216.773 178.348 218.378 179.953 220.359 179.953C222.339 179.953 223.945 178.348 223.945 176.368C223.945 174.388 222.339 172.782 220.359 172.782Z" fill="white"/>
<path d="M220.359 188.944C218.496 188.944 216.986 190.454 216.986 192.316C216.986 194.179 218.496 195.689 220.359 195.689C222.222 195.689 223.731 194.179 223.731 192.316C223.731 190.454 222.222 188.944 220.359 188.944Z" fill="white"/>
<path d="M220.359 211.343C222.059 211.343 223.437 209.964 223.437 208.264C223.437 206.564 222.059 205.186 220.359 205.186C218.659 205.186 217.28 206.564 217.28 208.264C217.28 209.964 218.659 211.343 220.359 211.343Z" fill="white"/>
<path d="M220.359 221.515C218.869 221.515 217.661 222.723 217.661 224.213C217.661 225.702 218.869 226.91 220.359 226.91C221.849 226.91 223.056 225.702 223.056 224.213C223.056 222.723 221.849 221.515 220.359 221.515Z" fill="white"/>
<path d="M220.359 242.384C221.587 242.384 222.582 241.389 222.582 240.161C222.582 238.933 221.587 237.937 220.359 237.937C219.131 237.937 218.135 238.933 218.135 240.161C218.135 241.389 219.131 242.384 220.359 242.384Z" fill="white"/>
<path d="M209.37 1.79864C209.846 1.79864 210.231 1.413 210.231 0.937671C210.231 0.461819 209.846 0.0761719 209.37 0.0761719C208.894 0.0761719 208.509 0.461819 208.509 0.937671C208.509 1.413 208.894 1.79864 209.37 1.79864Z" fill="white"/>
<path d="M209.37 18.4423C210.23 18.4423 210.928 17.7449 210.928 16.885C210.928 16.0251 210.23 15.3276 209.37 15.3276C208.51 15.3276 207.813 16.0251 207.813 16.885C207.813 17.7449 208.51 18.4423 209.37 18.4423Z" fill="white"/>
<path d="M209.37 34.9521C210.541 34.9521 211.489 34.0036 211.489 32.8335C211.489 31.6634 210.541 30.7148 209.37 30.7148C208.2 30.7148 207.251 31.6634 207.251 32.8335C207.251 34.0036 208.2 34.9521 209.37 34.9521Z" fill="white"/>
<path d="M209.37 51.3542C210.791 51.3542 211.943 50.2026 211.943 48.7814C211.943 47.3607 210.792 46.2085 209.37 46.2085C207.95 46.2085 206.797 47.3602 206.797 48.7814C206.797 50.2026 207.949 51.3542 209.37 51.3542Z" fill="white"/>
<path d="M209.37 67.6673C210.993 67.6673 212.308 66.3521 212.308 64.7299C212.308 63.1077 210.993 61.7925 209.37 61.7925C207.748 61.7925 206.433 63.1077 206.433 64.7299C206.433 66.3521 207.748 67.6673 209.37 67.6673Z" fill="white"/>
<path d="M209.37 83.8984C211.149 83.8984 212.591 82.4566 212.591 80.6782C212.591 78.8998 211.149 77.458 209.37 77.458C207.592 77.458 206.15 78.8998 206.15 80.6782C206.15 82.4566 207.591 83.8984 209.37 83.8984Z" fill="white"/>
<path d="M209.37 100.052C211.262 100.052 212.796 98.5184 212.796 96.6266C212.796 94.7348 211.262 93.2012 209.37 93.2012C207.479 93.2012 205.945 94.7348 205.945 96.6266C205.945 98.5184 207.479 100.052 209.37 100.052Z" fill="white"/>
<path d="M209.37 116.134C211.336 116.134 212.93 114.541 212.93 112.575C212.93 110.609 211.336 109.016 209.37 109.016C207.405 109.016 205.811 110.609 205.811 112.575C205.811 114.541 207.405 116.134 209.37 116.134Z" fill="white"/>
<path d="M209.37 132.15C211.373 132.15 212.996 130.526 212.996 128.524C212.996 126.521 211.373 124.897 209.37 124.897C207.368 124.897 205.744 126.521 205.744 128.524C205.744 130.526 207.368 132.15 209.37 132.15Z" fill="white"/>
<path d="M209.37 140.843C207.366 140.843 205.742 142.468 205.742 144.472C205.742 146.475 207.366 148.1 209.37 148.1C211.374 148.1 212.999 146.476 212.999 144.472C212.998 142.468 211.374 140.843 209.37 140.843Z" fill="white"/>
<path d="M209.37 156.854C207.402 156.854 205.805 158.451 205.805 160.42C205.805 162.389 207.401 163.985 209.37 163.985C211.339 163.985 212.936 162.389 212.936 160.42C212.935 158.451 211.339 156.854 209.37 156.854Z" fill="white"/>
<path d="M209.37 172.934C207.474 172.934 205.936 174.471 205.936 176.367C205.936 178.263 207.474 179.801 209.37 179.801C211.266 179.801 212.804 178.263 212.804 176.367C212.804 174.471 211.266 172.934 209.37 172.934Z" fill="white"/>
<path d="M209.37 195.546C211.154 195.546 212.6 194.1 212.6 192.316C212.6 190.532 211.154 189.086 209.37 189.086C207.587 189.086 206.141 190.532 206.141 192.316C206.141 194.1 207.587 195.546 209.37 195.546Z" fill="white"/>
<path d="M209.37 205.316C207.742 205.316 206.422 206.636 206.422 208.264C206.422 209.892 207.742 211.212 209.37 211.212C210.998 211.212 212.318 209.892 212.318 208.264C212.318 206.636 210.998 205.316 209.37 205.316Z" fill="white"/>
<path d="M209.37 221.63C207.944 221.63 206.787 222.786 206.787 224.213C206.787 225.639 207.944 226.796 209.37 226.796C210.797 226.796 211.953 225.639 211.953 224.213C211.953 222.786 210.797 221.63 209.37 221.63Z" fill="white"/>
<path d="M209.37 238.032C208.194 238.032 207.241 238.985 207.241 240.161C207.241 241.337 208.194 242.29 209.37 242.29C210.546 242.29 211.5 241.337 211.5 240.161C211.5 238.985 210.546 238.032 209.37 238.032Z" fill="white"/>
<path d="M198.381 1.76022C198.836 1.76022 199.204 1.39199 199.204 0.937239C199.204 0.482488 198.836 0.114258 198.381 0.114258C197.927 0.114258 197.558 0.482488 197.558 0.937239C197.558 1.39146 197.927 1.76022 198.381 1.76022Z" fill="white"/>
<path d="M198.381 18.3734C199.203 18.3734 199.87 17.7071 199.87 16.8852C199.87 16.0633 199.203 15.397 198.381 15.397C197.559 15.397 196.893 16.0633 196.893 16.8852C196.893 17.7071 197.559 18.3734 198.381 18.3734Z" fill="white"/>
<path d="M198.381 34.8582C199.5 34.8582 200.406 33.9513 200.406 32.8329C200.406 31.7145 199.499 30.8076 198.381 30.8076C197.263 30.8076 196.356 31.7145 196.356 32.8329C196.356 33.9518 197.263 34.8582 198.381 34.8582Z" fill="white"/>
<path d="M198.381 51.2405C199.739 51.2405 200.84 50.14 200.84 48.7821C200.84 47.4242 199.739 46.3237 198.381 46.3237C197.024 46.3237 195.923 47.4242 195.923 48.7821C195.923 50.1395 197.024 51.2405 198.381 51.2405Z" fill="white"/>
<path d="M198.381 67.5381C199.932 67.5381 201.189 66.281 201.189 64.7305C201.189 63.18 199.932 61.9229 198.381 61.9229C196.831 61.9229 195.574 63.18 195.574 64.7305C195.574 66.281 196.831 67.5381 198.381 67.5381Z" fill="white"/>
<path d="M198.381 83.7561C200.081 83.7561 201.459 82.3781 201.459 80.6783C201.459 78.9785 200.081 77.6006 198.381 77.6006C196.682 77.6006 195.304 78.9785 195.304 80.6783C195.304 82.3781 196.682 83.7561 198.381 83.7561Z" fill="white"/>
<path d="M198.381 99.8999C200.189 99.8999 201.655 98.4344 201.655 96.6265C201.655 94.8186 200.189 93.353 198.381 93.353C196.573 93.353 195.108 94.8186 195.108 96.6265C195.108 98.4344 196.573 99.8999 198.381 99.8999Z" fill="white"/>
<path d="M198.381 115.977C200.26 115.977 201.783 114.454 201.783 112.575C201.783 110.696 200.26 109.173 198.381 109.173C196.503 109.173 194.98 110.696 194.98 112.575C194.98 114.454 196.503 115.977 198.381 115.977Z" fill="white"/>
<path d="M198.381 131.99C200.295 131.99 201.847 130.438 201.847 128.524C201.847 126.609 200.296 125.058 198.381 125.058C196.467 125.058 194.915 126.609 194.915 128.524C194.915 130.438 196.467 131.99 198.381 131.99Z" fill="white"/>
<path d="M198.381 141.003C196.466 141.003 194.913 142.556 194.913 144.472C194.913 146.387 196.466 147.94 198.381 147.94C200.297 147.94 201.849 146.387 201.849 144.472C201.849 142.557 200.297 141.003 198.381 141.003Z" fill="white"/>
<path d="M198.381 157.013C196.5 157.013 194.974 158.538 194.974 160.42C194.974 162.302 196.5 163.827 198.381 163.827C200.263 163.827 201.788 162.302 201.788 160.42C201.788 158.538 200.263 157.013 198.381 157.013Z" fill="white"/>
<path d="M198.381 173.087C196.569 173.087 195.1 174.556 195.1 176.368C195.1 178.18 196.569 179.65 198.381 179.65C200.194 179.65 201.663 178.18 201.663 176.368C201.663 174.556 200.194 173.087 198.381 173.087Z" fill="white"/>
<path d="M198.381 195.403C200.086 195.403 201.468 194.021 201.468 192.316C201.468 190.611 200.086 189.229 198.381 189.229C196.677 189.229 195.295 190.611 195.295 192.316C195.295 194.021 196.677 195.403 198.381 195.403Z" fill="white"/>
<path d="M198.381 205.447C196.825 205.447 195.564 206.708 195.564 208.264C195.564 209.821 196.825 211.082 198.381 211.082C199.938 211.082 201.199 209.821 201.199 208.264C201.199 206.708 199.938 205.447 198.381 205.447Z" fill="white"/>
<path d="M198.381 226.681C199.745 226.681 200.85 225.576 200.85 224.213C200.85 222.849 199.745 221.744 198.381 221.744C197.018 221.744 195.913 222.849 195.913 224.213C195.913 225.576 197.018 226.681 198.381 226.681Z" fill="white"/>
<path d="M198.381 238.126C197.258 238.126 196.347 239.037 196.347 240.161C196.347 241.284 197.258 242.196 198.381 242.196C199.505 242.196 200.416 241.284 200.416 240.161C200.416 239.037 199.505 238.126 198.381 238.126Z" fill="white"/>
<path d="M187.393 1.72185C187.826 1.72185 188.178 1.3705 188.178 0.936849C188.178 0.503201 187.826 0.151855 187.393 0.151855C186.959 0.151855 186.608 0.503201 186.608 0.936849C186.608 1.3705 186.959 1.72185 187.393 1.72185Z" fill="white"/>
<path d="M187.393 18.3046C188.176 18.3046 188.812 17.6689 188.812 16.8855C188.812 16.1015 188.176 15.4658 187.393 15.4658C186.609 15.4658 185.973 16.1015 185.973 16.8855C185.973 17.6689 186.609 18.3046 187.393 18.3046Z" fill="white"/>
<path d="M187.392 34.7651C188.459 34.7651 189.324 33.9004 189.324 32.8337C189.324 31.7671 188.459 30.9023 187.392 30.9023C186.326 30.9023 185.461 31.7671 185.461 32.8337C185.461 33.9004 186.326 34.7651 187.392 34.7651Z" fill="white"/>
<path d="M187.393 51.1259C188.687 51.1259 189.737 50.0763 189.737 48.7815C189.737 47.4867 188.687 46.437 187.393 46.437C186.098 46.437 185.048 47.4867 185.048 48.7815C185.048 50.0763 186.098 51.1259 187.393 51.1259Z" fill="white"/>
<path d="M187.392 67.4079C188.872 67.4079 190.07 66.2088 190.07 64.7301C190.07 63.2508 188.872 62.0522 187.392 62.0522C185.914 62.0522 184.715 63.2514 184.715 64.7301C184.715 66.2094 185.914 67.4079 187.392 67.4079Z" fill="white"/>
<path d="M187.392 83.6138C189.014 83.6138 190.328 82.2996 190.328 80.6785C190.328 79.0573 189.014 77.7432 187.392 77.7432C185.771 77.7432 184.457 79.0573 184.457 80.6785C184.457 82.2996 185.771 83.6138 187.392 83.6138Z" fill="white"/>
<path d="M187.393 99.7484C189.116 99.7484 190.514 98.3509 190.514 96.6269C190.514 94.9029 189.116 93.5054 187.393 93.5054C185.669 93.5054 184.271 94.9029 184.271 96.6269C184.271 98.3509 185.669 99.7484 187.393 99.7484Z" fill="white"/>
<path d="M187.392 115.819C189.184 115.819 190.636 114.367 190.636 112.575C190.636 110.783 189.184 109.331 187.392 109.331C185.601 109.331 184.149 110.783 184.149 112.575C184.149 114.367 185.601 115.819 187.392 115.819Z" fill="white"/>
<path d="M187.393 131.829C189.218 131.829 190.698 130.349 190.698 128.523C190.698 126.698 189.218 125.218 187.393 125.218C185.567 125.218 184.087 126.698 184.087 128.523C184.087 130.349 185.567 131.829 187.393 131.829Z" fill="white"/>
<path d="M187.392 147.779C189.219 147.779 190.7 146.298 190.7 144.471C190.7 142.645 189.219 141.164 187.392 141.164C185.566 141.164 184.085 142.645 184.085 144.471C184.085 146.298 185.566 147.779 187.392 147.779Z" fill="white"/>
<path d="M187.392 157.171C185.598 157.171 184.144 158.625 184.144 160.42C184.144 162.214 185.598 163.668 187.392 163.668C189.187 163.668 190.641 162.214 190.641 160.42C190.642 158.626 189.187 157.171 187.392 157.171Z" fill="white"/>
<path d="M187.393 179.497C189.121 179.497 190.522 178.096 190.522 176.368C190.522 174.64 189.121 173.239 187.393 173.239C185.665 173.239 184.264 174.64 184.264 176.368C184.264 178.096 185.665 179.497 187.393 179.497Z" fill="white"/>
<path d="M187.393 189.372C185.767 189.372 184.448 190.69 184.448 192.316C184.448 193.942 185.766 195.261 187.393 195.261C189.018 195.261 190.337 193.942 190.337 192.316C190.337 190.69 189.019 189.372 187.393 189.372Z" fill="white"/>
<path d="M187.392 210.952C188.877 210.952 190.08 209.749 190.08 208.265C190.08 206.781 188.877 205.578 187.392 205.578C185.908 205.578 184.705 206.781 184.705 208.265C184.705 209.749 185.908 210.952 187.392 210.952Z" fill="white"/>
<path d="M187.393 226.566C188.692 226.566 189.746 225.513 189.746 224.213C189.746 222.913 188.692 221.859 187.393 221.859C186.093 221.859 185.039 222.913 185.039 224.213C185.039 225.513 186.093 226.566 187.393 226.566Z" fill="white"/>
<path d="M187.392 242.101C188.464 242.101 189.333 241.233 189.333 240.161C189.333 239.089 188.464 238.221 187.392 238.221C186.321 238.221 185.452 239.089 185.452 240.161C185.452 241.233 186.321 242.101 187.392 242.101Z" fill="white"/>
<path d="M176.404 1.68389C176.817 1.68389 177.151 1.34943 177.151 0.937409C177.151 0.524863 176.816 0.190918 176.404 0.190918C175.992 0.190918 175.658 0.525391 175.658 0.937409C175.657 1.34943 175.992 1.68389 176.404 1.68389Z" fill="white"/>
<path d="M176.404 18.2358C177.15 18.2358 177.755 17.6312 177.755 16.8852C177.755 16.1393 177.15 15.5347 176.404 15.5347C175.658 15.5347 175.054 16.1393 175.054 16.8852C175.054 17.6312 175.658 18.2358 176.404 18.2358Z" fill="white"/>
<path d="M176.404 34.6715C177.419 34.6715 178.242 33.8491 178.242 32.834C178.242 31.8196 177.419 30.9966 176.404 30.9966C175.389 30.9966 174.567 31.819 174.567 32.834C174.567 33.8485 175.389 34.6715 176.404 34.6715Z" fill="white"/>
<path d="M176.404 51.0123C177.636 51.0123 178.634 50.0136 178.634 48.7818C178.634 47.5499 177.635 46.5513 176.404 46.5513C175.172 46.5513 174.174 47.5499 174.174 48.7818C174.174 50.0136 175.172 51.0123 176.404 51.0123Z" fill="white"/>
<path d="M176.404 67.2783C177.812 67.2783 178.952 66.1372 178.952 64.7302C178.952 63.3227 177.811 62.1821 176.404 62.1821C174.997 62.1821 173.856 63.3232 173.856 64.7302C173.855 66.1377 174.997 67.2783 176.404 67.2783Z" fill="white"/>
<path d="M176.404 83.4715C177.947 83.4715 179.197 82.2212 179.197 80.6786C179.197 79.136 177.947 77.8857 176.404 77.8857C174.861 77.8857 173.611 79.136 173.611 80.6786C173.611 82.2212 174.861 83.4715 176.404 83.4715Z" fill="white"/>
<path d="M176.404 99.5964C178.044 99.5964 179.374 98.267 179.374 96.6268C179.374 94.9867 178.044 93.6572 176.404 93.6572C174.764 93.6572 173.434 94.9867 173.434 96.6268C173.434 98.267 174.764 99.5964 176.404 99.5964Z" fill="white"/>
<path d="M176.404 115.661C178.109 115.661 179.49 114.279 179.49 112.575C179.49 110.87 178.108 109.489 176.404 109.489C174.7 109.489 173.318 110.871 173.318 112.575C173.318 114.279 174.7 115.661 176.404 115.661Z" fill="white"/>
<path d="M176.404 131.669C178.141 131.669 179.55 130.26 179.55 128.523C179.55 126.786 178.142 125.377 176.404 125.377C174.667 125.377 173.258 126.786 173.258 128.523C173.258 130.261 174.667 131.669 176.404 131.669Z" fill="white"/>
<path d="M176.404 141.324C174.665 141.324 173.256 142.733 173.256 144.472C173.256 146.211 174.665 147.62 176.404 147.62C178.142 147.62 179.552 146.211 179.552 144.472C179.552 142.733 178.142 141.324 176.404 141.324Z" fill="white"/>
<path d="M176.404 157.329C174.697 157.329 173.313 158.712 173.313 160.42C173.313 162.127 174.697 163.51 176.404 163.51C178.111 163.51 179.495 162.127 179.495 160.42C179.494 158.712 178.111 157.329 176.404 157.329Z" fill="white"/>
<path d="M176.404 173.392C174.76 173.392 173.428 174.724 173.428 176.368C173.428 178.012 174.76 179.345 176.404 179.345C178.048 179.345 179.381 178.012 179.381 176.368C179.381 174.724 178.048 173.392 176.404 173.392Z" fill="white"/>
<path d="M176.404 195.118C177.951 195.118 179.205 193.864 179.205 192.316C179.205 190.769 177.951 189.515 176.404 189.515C174.857 189.515 173.603 190.769 173.603 192.316C173.603 193.864 174.857 195.118 176.404 195.118Z" fill="white"/>
<path d="M176.404 205.707C174.992 205.707 173.847 206.852 173.847 208.265C173.847 209.677 174.991 210.822 176.404 210.822C177.816 210.822 178.962 209.677 178.962 208.265C178.962 206.852 177.816 205.707 176.404 205.707Z" fill="white"/>
<path d="M176.404 221.974C175.168 221.974 174.165 222.976 174.165 224.213C174.165 225.449 175.168 226.452 176.404 226.452C177.641 226.452 178.643 225.449 178.643 224.213C178.643 222.976 177.641 221.974 176.404 221.974Z" fill="white"/>
<path d="M176.404 238.315C175.384 238.315 174.558 239.142 174.558 240.161C174.558 241.181 175.384 242.007 176.404 242.007C177.424 242.007 178.25 241.18 178.25 240.161C178.25 239.141 177.423 238.315 176.404 238.315Z" fill="white"/>
<path d="M165.415 1.64552C165.807 1.64552 166.124 1.32846 166.124 0.93702C166.124 0.545576 165.807 0.228516 165.415 0.228516C165.024 0.228516 164.707 0.545576 164.707 0.93702C164.707 1.32846 165.024 1.64552 165.415 1.64552Z" fill="white"/>
<path d="M165.415 18.1669C166.123 18.1669 166.697 17.5929 166.697 16.8854C166.697 16.1775 166.123 15.604 165.415 15.604C164.707 15.604 164.134 16.178 164.134 16.8854C164.134 17.5934 164.707 18.1669 165.415 18.1669Z" fill="white"/>
<path d="M165.415 34.5774C166.378 34.5774 167.159 33.7967 167.159 32.8339C167.159 31.8711 166.378 31.0903 165.415 31.0903C164.452 31.0903 163.672 31.8711 163.672 32.8339C163.672 33.7967 164.452 34.5774 165.415 34.5774Z" fill="white"/>
<path d="M165.415 50.8976C166.584 50.8976 167.531 49.9502 167.531 48.7815C167.531 47.6129 166.584 46.6655 165.415 46.6655C164.247 46.6655 163.299 47.6129 163.299 48.7815C163.299 49.9502 164.247 50.8976 165.415 50.8976Z" fill="white"/>
<path d="M165.415 67.1487C166.751 67.1487 167.833 66.0656 167.833 64.7299C167.833 63.3941 166.751 62.311 165.415 62.311C164.079 62.311 162.996 63.3941 162.996 64.7299C162.997 66.0656 164.079 67.1487 165.415 67.1487Z" fill="white"/>
<path d="M165.415 83.3292C166.879 83.3292 168.066 82.1422 168.066 80.6787C168.066 79.2148 166.879 78.0283 165.415 78.0283C163.951 78.0283 162.764 79.2148 162.764 80.6787C162.765 82.1427 163.951 83.3292 165.415 83.3292Z" fill="white"/>
<path d="M165.415 99.4439C166.971 99.4439 168.233 98.1824 168.233 96.6263C168.233 95.0701 166.971 93.8086 165.415 93.8086C163.859 93.8086 162.597 95.0701 162.597 96.6263C162.597 98.1824 163.859 99.4439 165.415 99.4439Z" fill="white"/>
<path d="M165.415 115.503C167.032 115.503 168.343 114.192 168.343 112.575C168.343 110.958 167.032 109.647 165.415 109.647C163.798 109.647 162.487 110.958 162.487 112.575C162.487 114.192 163.798 115.503 165.415 115.503Z" fill="white"/>
<path d="M165.415 131.509C167.064 131.509 168.401 130.172 168.401 128.524C168.401 126.875 167.064 125.538 165.415 125.538C163.766 125.538 162.43 126.875 162.43 128.524C162.43 130.172 163.767 131.509 165.415 131.509Z" fill="white"/>
<path d="M165.415 141.484C163.765 141.484 162.428 142.821 162.428 144.471C162.428 146.122 163.765 147.459 165.415 147.459C167.065 147.459 168.403 146.122 168.403 144.471C168.403 142.821 167.065 141.484 165.415 141.484Z" fill="white"/>
<path d="M165.415 157.487C163.796 157.487 162.483 158.8 162.483 160.42C162.483 162.04 163.796 163.353 165.415 163.353C167.035 163.353 168.348 162.04 168.348 160.42C168.348 158.8 167.035 157.487 165.415 157.487Z" fill="white"/>
<path d="M165.415 173.543C163.855 173.543 162.591 174.808 162.591 176.367C162.591 177.927 163.856 179.191 165.415 179.191C166.975 179.191 168.239 177.927 168.239 176.367C168.239 174.808 166.975 173.543 165.415 173.543Z" fill="white"/>
<path d="M165.415 194.974C166.883 194.974 168.074 193.784 168.074 192.316C168.074 190.848 166.883 189.658 165.415 189.658C163.947 189.658 162.757 190.848 162.757 192.316C162.757 193.784 163.947 194.974 165.415 194.974Z" fill="white"/>
<path d="M165.415 205.837C164.075 205.837 162.988 206.924 162.988 208.265C162.988 209.605 164.075 210.692 165.415 210.692C166.756 210.692 167.842 209.605 167.842 208.265C167.842 206.924 166.756 205.837 165.415 205.837Z" fill="white"/>
<path d="M165.415 226.337C166.589 226.337 167.54 225.386 167.54 224.213C167.54 223.04 166.589 222.088 165.415 222.088C164.242 222.088 163.291 223.04 163.291 224.213C163.291 225.386 164.242 226.337 165.415 226.337Z" fill="white"/>
<path d="M165.415 241.913C166.383 241.913 167.167 241.128 167.167 240.161C167.167 239.193 166.383 238.409 165.415 238.409C164.448 238.409 163.663 239.193 163.663 240.161C163.663 241.128 164.448 241.913 165.415 241.913Z" fill="white"/>
<path d="M154.426 1.60764C154.797 1.60764 155.097 1.30746 155.097 0.937119C155.097 0.566777 154.797 0.266602 154.426 0.266602C154.056 0.266602 153.756 0.566777 153.756 0.937119C153.756 1.30746 154.056 1.60764 154.426 1.60764Z" fill="white"/>
<path d="M154.426 18.098C155.096 18.098 155.639 17.5552 155.639 16.8852C155.639 16.2152 155.096 15.6724 154.426 15.6724C153.756 15.6724 153.213 16.2152 153.213 16.8852C153.214 17.5552 153.757 18.098 154.426 18.098Z" fill="white"/>
<path d="M154.426 34.4839C155.337 34.4839 156.076 33.7453 156.076 32.8342C156.076 31.9232 155.337 31.1846 154.426 31.1846C153.515 31.1846 152.777 31.9232 152.777 32.8342C152.777 33.7453 153.515 34.4839 154.426 34.4839Z" fill="white"/>
<path d="M154.426 50.7839C155.532 50.7839 156.428 49.8876 156.428 48.7819C156.428 47.6761 155.532 46.7798 154.426 46.7798C153.321 46.7798 152.424 47.6761 152.424 48.7819C152.424 49.8876 153.321 50.7839 154.426 50.7839Z" fill="white"/>
<path d="M154.426 67.0195C155.69 67.0195 156.715 65.9947 156.715 64.7305C156.715 63.4662 155.69 62.4414 154.426 62.4414C153.162 62.4414 152.137 63.4662 152.137 64.7305C152.137 65.9947 153.162 67.0195 154.426 67.0195Z" fill="white"/>
<path d="M154.426 83.1869C155.812 83.1869 156.935 82.0638 156.935 80.6784C156.935 79.293 155.812 78.1699 154.426 78.1699C153.041 78.1699 151.918 79.293 151.918 80.6784C151.918 82.0638 153.041 83.1869 154.426 83.1869Z" fill="white"/>
<path d="M154.426 99.2924C155.899 99.2924 157.092 98.0989 157.092 96.6267C157.092 95.1544 155.899 93.9609 154.426 93.9609C152.954 93.9609 151.761 95.1544 151.761 96.6267C151.761 98.0989 152.954 99.2924 154.426 99.2924Z" fill="white"/>
<path d="M154.426 115.345C155.956 115.345 157.196 114.105 157.196 112.575C157.196 111.045 155.956 109.805 154.426 109.805C152.896 109.805 151.656 111.045 151.656 112.575C151.656 114.105 152.896 115.345 154.426 115.345Z" fill="white"/>
<path d="M154.426 131.349C155.987 131.349 157.252 130.084 157.252 128.523C157.252 126.963 155.987 125.698 154.426 125.698C152.866 125.698 151.601 126.963 151.601 128.523C151.601 130.084 152.866 131.349 154.426 131.349Z" fill="white"/>
<path d="M154.426 147.298C155.988 147.298 157.253 146.033 157.253 144.471C157.253 142.91 155.988 141.644 154.426 141.644C152.865 141.644 151.599 142.91 151.599 144.471C151.599 146.033 152.865 147.298 154.426 147.298Z" fill="white"/>
<path d="M154.426 163.194C155.958 163.194 157.201 161.952 157.201 160.419C157.201 158.887 155.958 157.645 154.426 157.645C152.894 157.645 151.652 158.887 151.652 160.419C151.652 161.952 152.894 163.194 154.426 163.194Z" fill="white"/>
<path d="M154.426 179.039C155.902 179.039 157.098 177.843 157.098 176.368C157.098 174.892 155.902 173.696 154.426 173.696C152.951 173.696 151.755 174.892 151.755 176.368C151.755 177.843 152.951 179.039 154.426 179.039Z" fill="white"/>
<path d="M154.426 189.801C153.037 189.801 151.911 190.927 151.911 192.316C151.911 193.706 153.037 194.832 154.426 194.832C155.815 194.832 156.942 193.705 156.942 192.316C156.942 190.927 155.816 189.801 154.426 189.801Z" fill="white"/>
<path d="M154.426 210.561C155.695 210.561 156.723 209.533 156.723 208.264C156.723 206.996 155.695 205.967 154.426 205.967C153.158 205.967 152.129 206.996 152.129 208.264C152.129 209.533 153.158 210.561 154.426 210.561Z" fill="white"/>
<path d="M154.426 226.223C155.536 226.223 156.436 225.323 156.436 224.213C156.436 223.103 155.536 222.203 154.426 222.203C153.316 222.203 152.416 223.103 152.416 224.213C152.416 225.323 153.316 226.223 154.426 226.223Z" fill="white"/>
<path d="M154.426 241.819C155.342 241.819 156.084 241.076 156.084 240.161C156.084 239.246 155.342 238.503 154.426 238.503C153.511 238.503 152.769 239.246 152.769 240.161C152.769 241.076 153.511 241.819 154.426 241.819Z" fill="white"/>
<path d="M143.438 1.56919C143.787 1.56919 144.07 1.28642 144.07 0.937183C144.07 0.587943 143.787 0.305176 143.438 0.305176C143.089 0.305176 142.806 0.587943 142.806 0.937183C142.806 1.28589 143.089 1.56919 143.438 1.56919Z" fill="white"/>
<path d="M143.438 18.0292C144.069 18.0292 144.582 17.5169 144.582 16.8854C144.582 16.254 144.069 15.7417 143.438 15.7417C142.806 15.7417 142.294 16.254 142.294 16.8854C142.294 17.5169 142.806 18.0292 143.438 18.0292Z" fill="white"/>
<path d="M143.438 34.3893C144.297 34.3893 144.994 33.693 144.994 32.8336C144.994 31.9742 144.297 31.2778 143.438 31.2778C142.578 31.2778 141.882 31.9742 141.882 32.8336C141.882 33.6924 142.578 34.3893 143.438 34.3893Z" fill="white"/>
<path d="M143.438 50.6698C144.48 50.6698 145.326 49.8246 145.326 48.7817C145.326 47.7392 144.481 46.8936 143.438 46.8936C142.395 46.8936 141.55 47.7387 141.55 48.7817C141.55 49.8246 142.395 50.6698 143.438 50.6698Z" fill="white"/>
<path d="M143.438 66.8893C144.63 66.8893 145.597 65.9229 145.597 64.7301C145.597 63.5378 144.631 62.5708 143.438 62.5708C142.245 62.5708 141.279 63.5373 141.279 64.7301C141.279 65.9223 142.246 66.8893 143.438 66.8893Z" fill="white"/>
<path d="M143.438 83.0442C144.745 83.0442 145.804 81.9848 145.804 80.6781C145.804 79.3713 144.745 78.312 143.438 78.312C142.131 78.312 141.072 79.3713 141.072 80.6781C141.072 81.9854 142.131 83.0442 143.438 83.0442Z" fill="white"/>
<path d="M143.438 99.1404C144.826 99.1404 145.951 98.0151 145.951 96.6266C145.951 95.2386 144.826 94.1128 143.438 94.1128C142.049 94.1128 140.924 95.2381 140.924 96.6266C140.924 98.0151 142.049 99.1404 143.438 99.1404Z" fill="white"/>
<path d="M143.438 115.188C144.881 115.188 146.05 114.018 146.05 112.575C146.05 111.132 144.881 109.963 143.438 109.963C141.995 109.963 140.825 111.132 140.825 112.575C140.825 114.018 141.995 115.188 143.438 115.188Z" fill="white"/>
<path d="M143.438 131.188C144.91 131.188 146.103 129.995 146.103 128.523C146.103 127.051 144.91 125.858 143.438 125.858C141.966 125.858 140.773 127.051 140.773 128.523C140.773 129.995 141.966 131.188 143.438 131.188Z" fill="white"/>
<path d="M143.438 141.804C141.965 141.804 140.771 142.998 140.771 144.472C140.771 145.944 141.964 147.139 143.438 147.139C144.911 147.139 146.105 145.945 146.105 144.472C146.105 142.998 144.911 141.804 143.438 141.804Z" fill="white"/>
<path d="M143.438 157.803C141.993 157.803 140.821 158.974 140.821 160.419C140.821 161.864 141.993 163.036 143.438 163.036C144.883 163.036 146.055 161.864 146.055 160.419C146.055 158.974 144.883 157.803 143.438 157.803Z" fill="white"/>
<path d="M143.438 173.849C142.047 173.849 140.918 174.977 140.918 176.368C140.918 177.76 142.046 178.888 143.438 178.888C144.829 178.888 145.958 177.76 145.958 176.368C145.958 174.977 144.829 173.849 143.438 173.849Z" fill="white"/>
<path d="M143.438 194.689C144.748 194.689 145.811 193.627 145.811 192.316C145.811 191.006 144.748 189.943 143.438 189.943C142.127 189.943 141.065 191.006 141.065 192.316C141.065 193.627 142.127 194.689 143.438 194.689Z" fill="white"/>
<path d="M143.438 206.097C142.241 206.097 141.271 207.067 141.271 208.264C141.271 209.461 142.241 210.432 143.438 210.432C144.634 210.432 145.604 209.461 145.604 208.264C145.604 207.067 144.634 206.097 143.438 206.097Z" fill="white"/>
<path d="M143.438 222.317C142.391 222.317 141.542 223.166 141.542 224.213C141.542 225.26 142.391 226.108 143.438 226.108C144.485 226.108 145.333 225.26 145.333 224.213C145.333 223.166 144.485 222.317 143.438 222.317Z" fill="white"/>
<path d="M143.438 238.598C142.574 238.598 141.875 239.298 141.875 240.161C141.875 241.024 142.575 241.724 143.438 241.724C144.301 241.724 145.001 241.024 145.001 240.161C145.001 239.298 144.301 238.598 143.438 238.598Z" fill="white"/>
<path d="M132.449 1.53082C132.777 1.53082 133.043 1.26493 133.043 0.936793C133.043 0.608656 132.777 0.342773 132.449 0.342773C132.121 0.342773 131.855 0.608656 131.855 0.936793C131.855 1.26493 132.121 1.53082 132.449 1.53082Z" fill="white"/>
<path d="M132.449 17.9603C133.042 17.9603 133.524 17.4791 133.524 16.8857C133.524 16.2922 133.042 15.811 132.449 15.811C131.855 15.811 131.374 16.2922 131.374 16.8857C131.374 17.4786 131.855 17.9603 132.449 17.9603Z" fill="white"/>
<path d="M132.449 34.2953C133.257 34.2953 133.911 33.6406 133.911 32.8334C133.911 32.0257 133.256 31.3716 132.449 31.3716C131.642 31.3716 130.987 32.0263 130.987 32.8334C130.987 33.6406 131.642 34.2953 132.449 34.2953Z" fill="white"/>
<path d="M132.449 50.5556C133.429 50.5556 134.223 49.7616 134.223 48.7819C134.223 47.8023 133.429 47.0083 132.449 47.0083C131.469 47.0083 130.675 47.8023 130.675 48.7819C130.675 49.7611 131.469 50.5556 132.449 50.5556Z" fill="white"/>
<path d="M132.449 66.7597C133.57 66.7597 134.478 65.8512 134.478 64.7302C134.478 63.6091 133.57 62.7007 132.449 62.7007C131.328 62.7007 130.419 63.6091 130.419 64.7302C130.419 65.8512 131.328 66.7597 132.449 66.7597Z" fill="white"/>
<path d="M132.449 82.9024C133.677 82.9024 134.673 81.9068 134.673 80.6787C134.673 79.4506 133.677 78.4551 132.449 78.4551C131.221 78.4551 130.225 79.4506 130.225 80.6787C130.225 81.9068 131.221 82.9024 132.449 82.9024Z" fill="white"/>
<path d="M132.449 98.9883C133.753 98.9883 134.81 97.9311 134.81 96.627C134.81 95.3228 133.753 94.2656 132.449 94.2656C131.145 94.2656 130.088 95.3228 130.088 96.627C130.088 97.9311 131.145 98.9883 132.449 98.9883Z" fill="white"/>
<path d="M132.449 115.03C133.805 115.03 134.904 113.931 134.904 112.575C134.904 111.219 133.805 110.12 132.449 110.12C131.093 110.12 129.994 111.219 129.994 112.575C129.994 113.931 131.094 115.03 132.449 115.03Z" fill="white"/>
<path d="M132.449 131.028C133.832 131.028 134.954 129.907 134.954 128.523C134.954 127.14 133.832 126.019 132.449 126.019C131.066 126.019 129.944 127.14 129.944 128.523C129.944 129.907 131.066 131.028 132.449 131.028Z" fill="white"/>
<path d="M132.449 141.964C131.065 141.964 129.942 143.086 129.942 144.471C129.942 145.855 131.065 146.978 132.449 146.978C133.833 146.978 134.956 145.855 134.956 144.471C134.956 143.086 133.834 141.964 132.449 141.964Z" fill="white"/>
<path d="M132.449 162.878C133.807 162.878 134.907 161.778 134.907 160.42C134.907 159.062 133.807 157.961 132.449 157.961C131.091 157.961 129.99 159.062 129.99 160.42C129.99 161.778 131.091 162.878 132.449 162.878Z" fill="white"/>
<path d="M132.449 178.735C133.756 178.735 134.816 177.675 134.816 176.368C134.816 175.061 133.756 174.001 132.449 174.001C131.142 174.001 130.082 175.061 130.082 176.368C130.082 177.675 131.142 178.735 132.449 178.735Z" fill="white"/>
<path d="M132.449 194.546C133.681 194.546 134.679 193.548 134.679 192.316C134.679 191.085 133.681 190.086 132.449 190.086C131.217 190.086 130.219 191.085 130.219 192.316C130.219 193.548 131.217 194.546 132.449 194.546Z" fill="white"/>
<path d="M132.449 210.302C133.574 210.302 134.486 209.39 134.486 208.265C134.486 207.14 133.574 206.228 132.449 206.228C131.324 206.228 130.412 207.14 130.412 208.265C130.412 209.39 131.324 210.302 132.449 210.302Z" fill="white"/>
<path d="M132.449 222.432C131.466 222.432 130.668 223.229 130.668 224.213C130.668 225.196 131.465 225.994 132.449 225.994C133.433 225.994 134.23 225.197 134.23 224.213C134.23 223.229 133.433 222.432 132.449 222.432Z" fill="white"/>
<path d="M132.449 238.692C131.638 238.692 130.98 239.35 130.98 240.161C130.98 240.971 131.638 241.629 132.449 241.629C133.26 241.629 133.918 240.971 133.918 240.161C133.918 239.35 133.26 238.692 132.449 238.692Z" fill="white"/>
<path d="M121.461 1.49294C121.768 1.49294 122.017 1.24394 122.017 0.9369C122.017 0.629865 121.768 0.380859 121.461 0.380859C121.154 0.380859 120.905 0.629865 120.905 0.9369C120.905 1.24394 121.154 1.49294 121.461 1.49294Z" fill="white"/>
<path d="M121.461 17.8915C122.016 17.8915 122.467 17.441 122.467 16.8854C122.467 16.3299 122.016 15.8794 121.461 15.8794C120.905 15.8794 120.454 16.3299 120.454 16.8854C120.454 17.441 120.905 17.8915 121.461 17.8915Z" fill="white"/>
<path d="M121.46 34.2017C122.216 34.2017 122.828 33.5892 122.828 32.8338C122.828 32.0783 122.216 31.4658 121.46 31.4658C120.705 31.4658 120.093 32.0783 120.093 32.8338C120.092 33.5892 120.704 34.2017 121.46 34.2017Z" fill="white"/>
<path d="M121.461 50.4414C122.377 50.4414 123.12 49.6984 123.12 48.7818C123.12 47.8651 122.377 47.1221 121.461 47.1221C120.544 47.1221 119.801 47.8651 119.801 48.7818C119.801 49.6984 120.544 50.4414 121.461 50.4414Z" fill="white"/>
<path d="M121.461 66.63C122.51 66.63 123.36 65.7796 123.36 64.7303C123.36 63.681 122.51 62.8306 121.461 62.8306C120.411 62.8306 119.561 63.681 119.561 64.7303C119.561 65.7796 120.411 66.63 121.461 66.63Z" fill="white"/>
<path d="M121.46 82.76C122.61 82.76 123.542 81.8283 123.542 80.6788C123.542 79.5294 122.61 78.5977 121.46 78.5977C120.311 78.5977 119.379 79.5294 119.379 80.6788C119.379 81.8283 120.311 82.76 121.46 82.76Z" fill="white"/>
<path d="M121.46 98.8358C122.681 98.8358 123.67 97.8466 123.67 96.6264C123.67 95.4062 122.681 94.417 121.46 94.417C120.24 94.417 119.251 95.4062 119.251 96.6264C119.251 97.8466 120.24 98.8358 121.46 98.8358Z" fill="white"/>
<path d="M121.461 114.871C122.729 114.871 123.757 113.843 123.757 112.575C123.757 111.306 122.729 110.278 121.461 110.278C120.192 110.278 119.164 111.306 119.164 112.575C119.164 113.843 120.192 114.871 121.461 114.871Z" fill="white"/>
<path d="M121.461 130.869C122.756 130.869 123.806 129.819 123.806 128.524C123.806 127.229 122.756 126.179 121.461 126.179C120.165 126.179 119.116 127.229 119.116 128.524C119.116 129.819 120.165 130.869 121.461 130.869Z" fill="white"/>
<path d="M121.461 146.818C122.757 146.818 123.807 145.768 123.807 144.472C123.807 143.176 122.757 142.125 121.461 142.125C120.165 142.125 119.114 143.176 119.114 144.472C119.114 145.768 120.165 146.818 121.461 146.818Z" fill="white"/>
<path d="M121.461 162.72C122.731 162.72 123.761 161.69 123.761 160.42C123.761 159.149 122.731 158.119 121.461 158.119C120.19 158.119 119.16 159.149 119.16 160.42C119.16 161.69 120.19 162.72 121.461 162.72Z" fill="white"/>
<path d="M121.461 178.583C122.684 178.583 123.675 177.591 123.675 176.368C123.675 175.145 122.684 174.153 121.461 174.153C120.238 174.153 119.246 175.145 119.246 176.368C119.246 177.591 120.238 178.583 121.461 178.583Z" fill="white"/>
<path d="M121.461 190.229C120.308 190.229 119.374 191.164 119.374 192.316C119.374 193.469 120.308 194.403 121.461 194.403C122.613 194.403 123.548 193.469 123.548 192.316C123.548 191.164 122.613 190.229 121.461 190.229Z" fill="white"/>
<path d="M121.461 210.172C122.514 210.172 123.367 209.318 123.367 208.265C123.367 207.212 122.514 206.358 121.461 206.358C120.408 206.358 119.554 207.212 119.554 208.265C119.554 209.318 120.408 210.172 121.461 210.172Z" fill="white"/>
<path d="M121.461 225.879C122.381 225.879 123.127 225.133 123.127 224.212C123.127 223.292 122.381 222.546 121.461 222.546C120.54 222.546 119.794 223.292 119.794 224.212C119.794 225.133 120.54 225.879 121.461 225.879Z" fill="white"/>
<path d="M121.461 241.536C122.22 241.536 122.835 240.92 122.835 240.161C122.835 239.402 122.22 238.786 121.461 238.786C120.701 238.786 120.086 239.402 120.086 240.161C120.086 240.92 120.701 241.536 121.461 241.536Z" fill="white"/>
<path d="M110.472 1.45547C110.758 1.45547 110.989 1.22387 110.989 0.937941C110.989 0.652007 110.758 0.42041 110.472 0.42041C110.186 0.42041 109.954 0.652007 109.954 0.937941C109.954 1.22335 110.186 1.45547 110.472 1.45547Z" fill="white"/>
<path d="M110.472 17.8221C110.989 17.8221 111.409 17.4027 111.409 16.8852C111.409 16.3676 110.989 15.9482 110.472 15.9482C109.954 15.9482 109.535 16.3676 109.535 16.8852C109.535 17.4027 109.954 17.8221 110.472 17.8221Z" fill="white"/>
<path d="M110.472 34.1077C111.175 34.1077 111.746 33.5374 111.746 32.8336C111.746 32.1299 111.175 31.5596 110.472 31.5596C109.768 31.5596 109.197 32.1299 109.197 32.8336C109.197 33.5374 109.768 34.1077 110.472 34.1077Z" fill="white"/>
<path d="M110.472 50.3273C111.325 50.3273 112.017 49.6352 112.017 48.7816C112.017 47.928 111.325 47.2358 110.472 47.2358C109.618 47.2358 108.926 47.928 108.926 48.7816C108.926 49.6352 109.618 50.3273 110.472 50.3273Z" fill="white"/>
<path d="M110.472 66.5003C111.449 66.5003 112.242 65.7079 112.242 64.7304C112.242 63.7528 111.449 62.9604 110.472 62.9604C109.494 62.9604 108.702 63.7528 108.702 64.7304C108.702 65.7079 109.494 66.5003 110.472 66.5003Z" fill="white"/>
<path d="M110.472 82.6173C111.543 82.6173 112.41 81.7494 112.41 80.6785C112.41 79.6076 111.543 78.7397 110.472 78.7397C109.401 78.7397 108.533 79.6076 108.533 80.6785C108.533 81.7494 109.401 82.6173 110.472 82.6173Z" fill="white"/>
<path d="M110.472 98.6847C111.608 98.6847 112.529 97.7636 112.529 96.6273C112.529 95.4909 111.608 94.5698 110.472 94.5698C109.335 94.5698 108.414 95.4909 108.414 96.6273C108.414 97.7631 109.335 98.6847 110.472 98.6847Z" fill="white"/>
<path d="M110.472 114.714C111.653 114.714 112.61 113.756 112.61 112.575C112.61 111.394 111.653 110.437 110.472 110.437C109.29 110.437 108.333 111.394 108.333 112.575C108.333 113.756 109.29 114.714 110.472 114.714Z" fill="white"/>
<path d="M110.472 130.708C111.678 130.708 112.656 129.73 112.656 128.523C112.656 127.317 111.678 126.339 110.472 126.339C109.265 126.339 108.287 127.317 108.287 128.523C108.287 129.73 109.265 130.708 110.472 130.708Z" fill="white"/>
<path d="M110.472 142.285C109.264 142.285 108.285 143.264 108.285 144.472C108.285 145.679 109.264 146.659 110.472 146.659C111.679 146.659 112.658 145.679 112.658 144.472C112.658 143.264 111.679 142.285 110.472 142.285Z" fill="white"/>
<path d="M110.472 158.277C109.288 158.277 108.329 159.236 108.329 160.42C108.329 161.603 109.288 162.562 110.472 162.562C111.655 162.562 112.614 161.603 112.614 160.42C112.614 159.236 111.655 158.277 110.472 158.277Z" fill="white"/>
<path d="M110.472 174.305C109.333 174.305 108.409 175.228 108.409 176.367C108.409 177.506 109.333 178.43 110.472 178.43C111.611 178.43 112.534 177.506 112.534 176.367C112.534 175.228 111.611 174.305 110.472 174.305Z" fill="white"/>
<path d="M110.472 194.26C111.546 194.26 112.416 193.39 112.416 192.316C112.416 191.242 111.546 190.371 110.472 190.371C109.398 190.371 108.527 191.242 108.527 192.316C108.527 193.39 109.398 194.26 110.472 194.26Z" fill="white"/>
<path d="M110.472 206.488C109.49 206.488 108.695 207.283 108.695 208.264C108.695 209.245 109.491 210.04 110.472 210.04C111.453 210.04 112.248 209.245 112.248 208.264C112.248 207.283 111.453 206.488 110.472 206.488Z" fill="white"/>
<path d="M110.472 222.661C109.614 222.661 108.92 223.355 108.92 224.212C108.92 225.069 109.614 225.764 110.472 225.764C111.328 225.764 112.023 225.069 112.023 224.212C112.023 223.355 111.328 222.661 110.472 222.661Z" fill="white"/>
<path d="M110.472 238.88C109.764 238.88 109.191 239.454 109.191 240.161C109.191 240.868 109.764 241.441 110.472 241.441C111.179 241.441 111.752 240.868 111.752 240.161C111.752 239.453 111.179 238.88 110.472 238.88Z" fill="white"/>
<path d="M99.4827 1.41661C99.7476 1.41661 99.9623 1.20189 99.9623 0.937063C99.9623 0.672232 99.7476 0.45752 99.4827 0.45752C99.2179 0.45752 99.0032 0.672232 99.0032 0.937063C99.0032 1.20189 99.2179 1.41661 99.4827 1.41661Z" fill="white"/>
<path d="M99.4827 17.7538C99.9623 17.7538 100.351 17.365 100.351 16.8855C100.351 16.4059 99.9618 16.0171 99.4827 16.0171C99.0037 16.0171 98.6144 16.4059 98.6144 16.8855C98.6149 17.365 99.0032 17.7538 99.4827 17.7538Z" fill="white"/>
<path d="M99.4827 34.0141C100.135 34.0141 100.663 33.4855 100.663 32.834C100.663 32.1819 100.135 31.6533 99.4827 31.6533C98.8306 31.6533 98.302 32.1819 98.302 32.834C98.3025 33.486 98.8311 34.0141 99.4827 34.0141Z" fill="white"/>
<path d="M99.4826 50.2136C100.273 50.2136 100.914 49.5726 100.914 48.7823C100.914 47.9915 100.273 47.3511 99.4826 47.3511C98.6924 47.3511 98.0514 47.992 98.0514 48.7823C98.0514 49.5726 98.6924 50.2136 99.4826 50.2136Z" fill="white"/>
<path d="M99.4827 66.3702C100.389 66.3702 101.123 65.6358 101.123 64.73C101.123 63.8242 100.389 63.0898 99.4827 63.0898C98.5769 63.0898 97.8425 63.8242 97.8425 64.73C97.8425 65.6358 98.5769 66.3702 99.4827 66.3702Z" fill="white"/>
<path d="M99.4827 82.475C100.475 82.475 101.279 81.6704 101.279 80.6786C101.279 79.6863 100.475 78.8823 99.4827 78.8823C98.4904 78.8823 97.6864 79.6868 97.6864 80.6786C97.6864 81.6704 98.4909 82.475 99.4827 82.475Z" fill="white"/>
<path d="M99.4827 98.5322C100.535 98.5322 101.388 97.6791 101.388 96.6267C101.388 95.5743 100.535 94.7212 99.4827 94.7212C98.4303 94.7212 97.5771 95.5743 97.5771 96.6267C97.5771 97.6791 98.4303 98.5322 99.4827 98.5322Z" fill="white"/>
<path d="M99.4828 114.556C100.577 114.556 101.464 113.669 101.464 112.575C101.464 111.481 100.577 110.594 99.4828 110.594C98.3887 110.594 97.5018 111.481 97.5018 112.575C97.5018 113.669 98.3887 114.556 99.4828 114.556Z" fill="white"/>
<path d="M99.4828 130.548C100.601 130.548 101.508 129.641 101.508 128.523C101.508 127.405 100.601 126.498 99.4828 126.498C98.3643 126.498 97.458 127.404 97.458 128.523C97.4585 129.641 98.3649 130.548 99.4828 130.548Z" fill="white"/>
<path d="M99.4828 142.445C98.3638 142.445 97.4564 143.353 97.4564 144.472C97.4564 145.591 98.3638 146.498 99.4828 146.498C100.602 146.498 101.509 145.591 101.509 144.472C101.509 143.353 100.602 142.445 99.4828 142.445Z" fill="white"/>
<path d="M99.4827 162.404C100.578 162.404 101.467 161.515 101.467 160.42C101.467 159.324 100.578 158.436 99.4827 158.436C98.3869 158.436 97.4985 159.324 97.4985 160.42C97.4985 161.515 98.3869 162.404 99.4827 162.404Z" fill="white"/>
<path d="M99.4827 174.458C98.4282 174.458 97.573 175.313 97.573 176.368C97.573 177.422 98.4282 178.277 99.4827 178.277C100.537 178.277 101.392 177.422 101.392 176.368C101.392 175.313 100.538 174.458 99.4827 174.458Z" fill="white"/>
<path d="M99.4826 194.118C100.478 194.118 101.284 193.311 101.284 192.316C101.284 191.321 100.478 190.515 99.4826 190.515C98.4876 190.515 97.681 191.321 97.681 192.316C97.681 193.311 98.4876 194.118 99.4826 194.118Z" fill="white"/>
<path d="M99.4827 206.618C98.5737 206.618 97.8362 207.355 97.8362 208.265C97.8362 209.174 98.5732 209.911 99.4827 209.911C100.392 209.911 101.129 209.174 101.129 208.265C101.129 207.355 100.392 206.618 99.4827 206.618Z" fill="white"/>
<path d="M99.4827 225.65C100.276 225.65 100.92 225.007 100.92 224.213C100.92 223.419 100.276 222.776 99.4827 222.776C98.689 222.776 98.0457 223.419 98.0457 224.213C98.0457 225.007 98.689 225.65 99.4827 225.65Z" fill="white"/>
<path d="M99.4828 241.347C100.138 241.347 100.669 240.816 100.669 240.161C100.669 239.506 100.138 238.975 99.4828 238.975C98.8278 238.975 98.2969 239.506 98.2969 240.161C98.2969 240.816 98.8278 241.347 99.4828 241.347Z" fill="white"/>
<path d="M88.4944 1.37865C88.7381 1.37865 88.9354 1.18082 88.9354 0.937615C88.9354 0.693886 88.7381 0.496582 88.4944 0.496582C88.2506 0.496582 88.0533 0.693886 88.0533 0.937615C88.0528 1.18082 88.2506 1.37865 88.4944 1.37865Z" fill="white"/>
<path d="M88.4943 17.6849C88.9359 17.6849 89.2936 17.3272 89.2936 16.8857C89.2936 16.4441 88.9359 16.0864 88.4943 16.0864C88.0527 16.0864 87.6951 16.4441 87.6951 16.8857C87.6951 17.3272 88.0527 17.6849 88.4943 17.6849Z" fill="white"/>
<path d="M88.4943 33.9206C89.0945 33.9206 89.5811 33.434 89.5811 32.8338C89.5811 32.2336 89.0945 31.7471 88.4943 31.7471C87.8941 31.7471 87.4076 32.2336 87.4076 32.8338C87.4076 33.434 87.8941 33.9206 88.4943 33.9206Z" fill="white"/>
<path d="M88.4943 50.0989C89.2218 50.0989 89.8116 49.5092 89.8116 48.7817C89.8116 48.0542 89.2218 47.4644 88.4943 47.4644C87.7668 47.4644 87.177 48.0542 87.177 48.7817C87.177 49.5092 87.7668 50.0989 88.4943 50.0989Z" fill="white"/>
<path d="M88.4943 66.2405C89.3283 66.2405 90.0047 65.5642 90.0047 64.7301C90.0047 63.8961 89.3283 63.2197 88.4943 63.2197C87.6602 63.2197 86.9839 63.8961 86.9839 64.7301C86.9834 65.5642 87.6597 66.2405 88.4943 66.2405Z" fill="white"/>
<path d="M88.4943 82.3322C89.4077 82.3322 90.1482 81.5917 90.1482 80.6783C90.1482 79.7649 89.4077 79.0244 88.4943 79.0244C87.5809 79.0244 86.8405 79.7649 86.8405 80.6783C86.8405 81.5917 87.5809 82.3322 88.4943 82.3322Z" fill="white"/>
<path d="M88.4943 98.3797C89.4628 98.3797 90.2479 97.5946 90.2479 96.6261C90.2479 95.6577 89.4628 94.8726 88.4943 94.8726C87.5258 94.8726 86.7407 95.6577 86.7407 96.6261C86.7407 97.5946 87.5258 98.3797 88.4943 98.3797Z" fill="white"/>
<path d="M88.4944 114.398C89.5015 114.398 90.3176 113.582 90.3176 112.575C90.3176 111.568 89.5015 110.751 88.4944 110.751C87.4873 110.751 86.6711 111.568 86.6711 112.575C86.6711 113.582 87.4873 114.398 88.4944 114.398Z" fill="white"/>
<path d="M88.4944 130.388C89.524 130.388 90.3587 129.553 90.3587 128.524C90.3587 127.494 89.524 126.659 88.4944 126.659C87.4647 126.659 86.63 127.494 86.63 128.524C86.63 129.553 87.4647 130.388 88.4944 130.388Z" fill="white"/>
<path d="M88.4943 146.337C89.5248 146.337 90.3602 145.502 90.3602 144.471C90.3602 143.441 89.5248 142.605 88.4943 142.605C87.4637 142.605 86.6283 143.441 86.6283 144.471C86.6283 145.502 87.4637 146.337 88.4943 146.337Z" fill="white"/>
<path d="M88.4944 162.246C89.503 162.246 90.3207 161.429 90.3207 160.42C90.3207 159.411 89.503 158.594 88.4944 158.594C87.4857 158.594 86.668 159.411 86.668 160.42C86.668 161.429 87.4857 162.246 88.4944 162.246Z" fill="white"/>
<path d="M88.4944 178.126C89.4652 178.126 90.2522 177.339 90.2522 176.368C90.2522 175.397 89.4652 174.61 88.4944 174.61C87.5236 174.61 86.7366 175.397 86.7366 176.368C86.7366 177.339 87.5236 178.126 88.4944 178.126Z" fill="white"/>
<path d="M88.4943 190.658C87.5785 190.658 86.8357 191.4 86.8357 192.316C86.8357 193.232 87.5785 193.975 88.4943 193.975C89.4101 193.975 90.1529 193.232 90.1529 192.316C90.1529 191.4 89.4101 190.658 88.4943 190.658Z" fill="white"/>
<path d="M88.4943 206.748C87.6571 206.748 86.9781 207.427 86.9781 208.264C86.9781 209.101 87.6571 209.78 88.4943 209.78C89.3316 209.78 90.0105 209.101 90.0105 208.264C90.0105 207.427 89.3316 206.748 88.4943 206.748Z" fill="white"/>
<path d="M88.4943 222.89C87.7637 222.89 87.1718 223.482 87.1718 224.213C87.1718 224.943 87.7637 225.535 88.4943 225.535C89.225 225.535 89.8169 224.943 89.8169 224.213C89.8169 223.483 89.2245 222.89 88.4943 222.89Z" fill="white"/>
<path d="M88.4943 241.252C89.0972 241.252 89.5858 240.764 89.5858 240.161C89.5858 239.558 89.0972 239.069 88.4943 239.069C87.8915 239.069 87.4028 239.558 87.4028 240.161C87.4028 240.764 87.8915 241.252 88.4943 241.252Z" fill="white"/>
<path d="M77.5053 1.34077C77.728 1.34077 77.9084 1.16035 77.9084 0.937722C77.9084 0.715095 77.728 0.534668 77.5053 0.534668C77.2827 0.534668 77.1023 0.715095 77.1023 0.937722C77.1023 1.15982 77.2827 1.34077 77.5053 1.34077Z" fill="white"/>
<path d="M77.5054 17.6155C77.909 17.6155 78.2355 17.2885 78.2355 16.8854C78.2355 16.4818 77.9084 16.1553 77.5054 16.1553C77.1018 16.1553 76.7753 16.4824 76.7753 16.8854C76.7753 17.289 77.1018 17.6155 77.5054 17.6155Z" fill="white"/>
<path d="M77.5054 33.827C78.0535 33.827 78.4983 33.3828 78.4983 32.8342C78.4983 32.286 78.0535 31.8413 77.5054 31.8413C76.9573 31.8413 76.5126 32.2855 76.5126 32.8342C76.5126 33.3823 76.9573 33.827 77.5054 33.827Z" fill="white"/>
<path d="M77.5053 49.9853C78.1701 49.9853 78.7087 49.4467 78.7087 48.782C78.7087 48.1172 78.1701 47.5786 77.5053 47.5786C76.8406 47.5786 76.302 48.1172 76.302 48.782C76.302 49.4467 76.8406 49.9853 77.5053 49.9853Z" fill="white"/>
<path d="M77.5054 66.1108C78.2682 66.1108 78.886 65.4925 78.886 64.7302C78.886 63.9679 78.2677 63.3496 77.5054 63.3496C76.7425 63.3496 76.1248 63.9679 76.1248 64.7302C76.1248 65.4925 76.7425 66.1108 77.5054 66.1108Z" fill="white"/>
<path d="M77.5054 82.1899C78.34 82.1899 79.0168 81.513 79.0168 80.6784C79.0168 79.8433 78.34 79.167 77.5054 79.167C76.6703 79.167 75.9934 79.8438 75.9934 80.6784C75.9939 81.513 76.6703 82.1899 77.5054 82.1899Z" fill="white"/>
<path d="M77.5055 98.2282C78.3902 98.2282 79.1071 97.5113 79.1071 96.6266C79.1071 95.7419 78.3902 95.0249 77.5055 95.0249C76.6208 95.0249 75.9038 95.7419 75.9038 96.6266C75.9038 97.5113 76.6208 98.2282 77.5055 98.2282Z" fill="white"/>
<path d="M77.5053 114.24C78.4248 114.24 79.1708 113.495 79.1708 112.575C79.1708 111.655 78.4254 110.909 77.5053 110.909C76.5858 110.909 75.8398 111.655 75.8398 112.575C75.8398 113.494 76.5858 114.24 77.5053 114.24Z" fill="white"/>
<path d="M77.5054 130.227C78.4466 130.227 79.2094 129.464 79.2094 128.523C79.2094 127.582 78.4466 126.819 77.5054 126.819C76.5643 126.819 75.8009 127.582 75.8009 128.523C75.8014 129.464 76.5643 130.227 77.5054 130.227Z" fill="white"/>
<path d="M77.5054 142.766C76.5632 142.766 75.7993 143.53 75.7993 144.472C75.7993 145.414 76.5632 146.177 77.5054 146.177C78.4476 146.177 79.211 145.413 79.211 144.472C79.211 143.53 78.4476 142.766 77.5054 142.766Z" fill="white"/>
<path d="M77.5054 158.751C76.5843 158.751 75.8373 159.498 75.8373 160.42C75.8373 161.341 76.5843 162.088 77.5054 162.088C78.4265 162.088 79.1735 161.341 79.1735 160.42C79.1735 159.498 78.4265 158.751 77.5054 158.751Z" fill="white"/>
<path d="M77.5054 174.763C76.6186 174.763 75.9 175.481 75.9 176.368C75.9 177.255 76.6186 177.973 77.5054 177.973C78.3922 177.973 79.1107 177.255 79.1107 176.368C79.1107 175.481 78.3922 174.763 77.5054 174.763Z" fill="white"/>
<path d="M77.5054 190.801C76.6682 190.801 75.9897 191.479 75.9897 192.316C75.9897 193.154 76.6687 193.832 77.5054 193.832C78.3426 193.832 79.0211 193.154 79.0211 192.316C79.0211 191.479 78.3426 190.801 77.5054 190.801Z" fill="white"/>
<path d="M77.5054 206.878C76.7399 206.878 76.1195 207.498 76.1195 208.264C76.1195 209.029 76.7399 209.65 77.5054 209.65C78.2709 209.65 78.8913 209.029 78.8913 208.264C78.8913 207.498 78.2709 206.878 77.5054 206.878Z" fill="white"/>
<path d="M77.5053 223.005C76.838 223.005 76.2972 223.546 76.2972 224.213C76.2972 224.88 76.838 225.421 77.5053 225.421C78.1722 225.421 78.7134 224.88 78.7134 224.213C78.7134 223.546 78.1727 223.005 77.5053 223.005Z" fill="white"/>
<path d="M77.5054 239.164C76.9546 239.164 76.5078 239.61 76.5078 240.161C76.5078 240.711 76.9541 241.158 77.5054 241.158C78.0562 241.158 78.5025 240.711 78.5025 240.161C78.5025 239.61 78.0562 239.164 77.5054 239.164Z" fill="white"/>
<path d="M66.5165 1.30191C66.7181 1.30191 66.8816 1.13837 66.8816 0.936844C66.8816 0.735319 66.7181 0.571777 66.5165 0.571777C66.315 0.571777 66.1515 0.735319 66.1515 0.936844C66.152 1.13837 66.3156 1.30191 66.5165 1.30191Z" fill="white"/>
<path d="M66.5164 17.5472C66.8815 17.5472 67.178 17.2513 67.178 16.8857C67.178 16.5206 66.882 16.2241 66.5164 16.2241C66.1508 16.2241 65.8549 16.5201 65.8549 16.8857C65.8554 17.2513 66.1513 17.5472 66.5164 17.5472Z" fill="white"/>
<path d="M66.5164 33.733C67.0128 33.733 67.4153 33.3304 67.4153 32.834C67.4153 32.3376 67.0128 31.9351 66.5164 31.9351C66.02 31.9351 65.6174 32.3376 65.6174 32.834C65.618 33.3304 66.02 33.733 66.5164 33.733Z" fill="white"/>
<path d="M66.5165 49.8711C67.1179 49.8711 67.6054 49.3836 67.6054 48.7822C67.6054 48.1808 67.1179 47.6934 66.5165 47.6934C65.9151 47.6934 65.4276 48.1808 65.4276 48.7822C65.4276 49.3836 65.9151 49.8711 66.5165 49.8711Z" fill="white"/>
<path d="M66.5164 65.9817C67.2075 65.9817 67.7673 65.4215 67.7673 64.7304C67.7673 64.0393 67.207 63.479 66.5164 63.479C65.8254 63.479 65.2656 64.0393 65.2656 64.7304C65.2656 65.4215 65.8259 65.9817 66.5164 65.9817Z" fill="white"/>
<path d="M66.5165 82.0481C67.2729 82.0481 67.886 81.435 67.886 80.6786C67.886 79.9222 67.2729 79.3091 66.5165 79.3091C65.7601 79.3091 65.147 79.9222 65.147 80.6786C65.147 81.435 65.7601 82.0481 66.5165 82.0481Z" fill="white"/>
<path d="M66.5165 98.0762C67.3173 98.0762 67.9662 97.4273 67.9662 96.6265C67.9662 95.8256 67.3173 95.1768 66.5165 95.1768C65.7157 95.1768 65.0668 95.8256 65.0668 96.6265C65.0673 97.4273 65.7162 98.0762 66.5165 98.0762Z" fill="white"/>
<path d="M66.5164 114.082C67.3489 114.082 68.0236 113.408 68.0236 112.575C68.0236 111.743 67.3489 111.068 66.5164 111.068C65.6839 111.068 65.0087 111.743 65.0087 112.575C65.0092 113.408 65.6839 114.082 66.5164 114.082Z" fill="white"/>
<path d="M66.5164 130.067C67.3692 130.067 68.0606 129.376 68.0606 128.523C68.0606 127.67 67.3692 126.979 66.5164 126.979C65.6636 126.979 64.9723 127.67 64.9723 128.523C64.9723 129.376 65.6636 130.067 66.5164 130.067Z" fill="white"/>
<path d="M66.5164 142.925C65.6628 142.925 64.9707 143.617 64.9707 144.471C64.9707 145.325 65.6628 146.017 66.5164 146.017C67.37 146.017 68.0622 145.325 68.0622 144.471C68.0622 143.617 67.3705 142.925 66.5164 142.925Z" fill="white"/>
<path d="M66.5164 158.91C65.6824 158.91 65.0066 159.586 65.0066 160.42C65.0066 161.254 65.6829 161.929 66.5164 161.929C67.3505 161.929 68.0263 161.253 68.0263 160.42C68.0268 159.585 67.3505 158.91 66.5164 158.91Z" fill="white"/>
<path d="M66.5165 177.821C67.3189 177.821 67.9694 177.17 67.9694 176.368C67.9694 175.566 67.3189 174.915 66.5165 174.915C65.7141 174.915 65.0636 175.566 65.0636 176.368C65.0636 177.17 65.7141 177.821 66.5165 177.821Z" fill="white"/>
<path d="M66.5164 190.943C65.7583 190.943 65.1432 191.558 65.1432 192.316C65.1432 193.074 65.7578 193.689 66.5164 193.689C67.2745 193.689 67.8896 193.075 67.8896 192.316C67.8896 191.558 67.275 190.943 66.5164 190.943Z" fill="white"/>
<path d="M66.5165 207.008C65.8227 207.008 65.2604 207.571 65.2604 208.264C65.2604 208.958 65.8227 209.521 66.5165 209.521C67.2102 209.521 67.7726 208.958 67.7726 208.264C67.7726 207.571 67.2102 207.008 66.5165 207.008Z" fill="white"/>
<path d="M66.5165 223.119C65.9124 223.119 65.4229 223.609 65.4229 224.213C65.4229 224.817 65.9124 225.306 66.5165 225.306C67.1205 225.306 67.6101 224.817 67.6101 224.213C67.6101 223.609 67.1205 223.119 66.5165 223.119Z" fill="white"/>
<path d="M66.5164 241.064C67.0153 241.064 67.4196 240.66 67.4196 240.161C67.4196 239.662 67.0153 239.258 66.5164 239.258C66.0176 239.258 65.6133 239.662 65.6133 240.161C65.6133 240.66 66.0176 241.064 66.5164 241.064Z" fill="white"/>
<path d="M55.5281 1.26395C55.7085 1.26395 55.8547 1.11782 55.8547 0.937397C55.8547 0.756974 55.7085 0.61084 55.5281 0.61084C55.3477 0.61084 55.2015 0.756974 55.2015 0.937397C55.201 1.11782 55.3477 1.26395 55.5281 1.26395Z" fill="white"/>
<path d="M55.5281 17.4779C55.8552 17.4779 56.1206 17.2125 56.1206 16.8854C56.1206 16.5583 55.8552 16.293 55.5281 16.293C55.201 16.293 54.9357 16.5583 54.9357 16.8854C54.9357 17.2125 55.201 17.4779 55.5281 17.4779Z" fill="white"/>
<path d="M55.5281 33.6389C55.9728 33.6389 56.3331 33.2786 56.3331 32.8339C56.3331 32.3891 55.9728 32.0288 55.5281 32.0288C55.0833 32.0288 54.723 32.3891 54.723 32.8339C54.723 33.2786 55.0833 33.6389 55.5281 33.6389Z" fill="white"/>
<path d="M55.5281 49.757C56.0668 49.757 56.5031 49.3207 56.5031 48.7821C56.5031 48.2434 56.0668 47.8071 55.5281 47.8071C54.9895 47.8071 54.5532 48.2434 54.5532 48.7821C54.5532 49.3207 54.9895 49.757 55.5281 49.757Z" fill="white"/>
<path d="M55.5281 65.8516C56.1474 65.8516 56.6496 65.3493 56.6496 64.73C56.6496 64.1106 56.1479 63.6084 55.5281 63.6084C54.9087 63.6084 54.4065 64.1106 54.4065 64.73C54.4065 65.3493 54.9087 65.8516 55.5281 65.8516Z" fill="white"/>
<path d="M55.5281 81.9054C56.206 81.9054 56.7552 81.3562 56.7552 80.6783C56.7552 80.0004 56.206 79.4512 55.5281 79.4512C54.8507 79.4512 54.301 80.0004 54.301 80.6783C54.301 81.3562 54.8502 81.9054 55.5281 81.9054Z" fill="white"/>
<path d="M55.5281 97.9242C56.2445 97.9242 56.8259 97.3433 56.8259 96.6264C56.8259 95.9094 56.2451 95.3286 55.5281 95.3286C54.8117 95.3286 54.2303 95.9094 54.2303 96.6264C54.2303 97.3433 54.8112 97.9242 55.5281 97.9242Z" fill="white"/>
<path d="M55.5281 113.925C56.2735 113.925 56.8775 113.32 56.8775 112.575C56.8775 111.83 56.2735 111.226 55.5281 111.226C54.7826 111.226 54.1786 111.83 54.1786 112.575C54.1786 113.32 54.7826 113.925 55.5281 113.925Z" fill="white"/>
<path d="M55.5281 129.907C56.2925 129.907 56.9118 129.288 56.9118 128.523C56.9118 127.759 56.292 127.14 55.5281 127.14C54.7636 127.14 54.1443 127.759 54.1443 128.523C54.1443 129.287 54.7636 129.907 55.5281 129.907Z" fill="white"/>
<path d="M55.5282 145.857C56.2933 145.857 56.9135 145.236 56.9135 144.471C56.9135 143.706 56.2933 143.086 55.5282 143.086C54.7631 143.086 54.1428 143.706 54.1428 144.471C54.1428 145.236 54.7631 145.857 55.5282 145.857Z" fill="white"/>
<path d="M55.528 159.068C54.7815 159.068 54.1759 159.673 54.1759 160.42C54.1759 161.166 54.7815 161.772 55.528 161.772C56.2745 161.772 56.8801 161.167 56.8801 160.42C56.8796 159.673 56.2745 159.068 55.528 159.068Z" fill="white"/>
<path d="M55.5281 175.067C54.8101 175.067 54.2277 175.65 54.2277 176.368C54.2277 177.086 54.8101 177.668 55.5281 177.668C56.2466 177.668 56.8285 177.086 56.8285 176.368C56.8285 175.65 56.2461 175.067 55.5281 175.067Z" fill="white"/>
<path d="M55.5281 191.086C54.8486 191.086 54.2979 191.637 54.2979 192.316C54.2979 192.996 54.8486 193.546 55.5281 193.546C56.2076 193.546 56.7584 192.996 56.7584 192.316C56.7584 191.637 56.2076 191.086 55.5281 191.086Z" fill="white"/>
<path d="M55.5281 207.139C54.9062 207.139 54.4023 207.643 54.4023 208.265C54.4023 208.887 54.9062 209.391 55.5281 209.391C56.1501 209.391 56.6539 208.887 56.6539 208.265C56.6539 207.643 56.1496 207.139 55.5281 207.139Z" fill="white"/>
<path d="M55.5281 225.192C56.0689 225.192 56.5072 224.753 56.5072 224.213C56.5072 223.672 56.0689 223.233 55.5281 223.233C54.9873 223.233 54.549 223.672 54.549 224.213C54.549 224.753 54.9873 225.192 55.5281 225.192Z" fill="white"/>
<path d="M55.5281 239.353C55.0813 239.353 54.7194 239.714 54.7194 240.161C54.7194 240.608 55.0813 240.97 55.5281 240.97C55.9749 240.97 56.3368 240.608 56.3368 240.161C56.3368 239.715 55.9744 239.353 55.5281 239.353Z" fill="white"/>
<path d="M44.5392 1.22509C44.6985 1.22509 44.8277 1.09584 44.8277 0.936519C44.8277 0.777198 44.6985 0.647949 44.5392 0.647949C44.3799 0.647949 44.2506 0.777198 44.2506 0.936519C44.2506 1.09637 44.3799 1.22509 44.5392 1.22509Z" fill="white"/>
<path d="M44.5391 17.4095C44.8282 17.4095 45.0625 17.1753 45.0625 16.8862C45.0625 16.5971 44.8282 16.3623 44.5391 16.3623C44.25 16.3623 44.0153 16.5965 44.0153 16.8862C44.0158 17.1747 44.25 17.4095 44.5391 17.4095Z" fill="white"/>
<path d="M44.5391 33.5448C44.9322 33.5448 45.2503 33.2262 45.2503 32.8337C45.2503 32.4407 44.9316 32.1226 44.5391 32.1226C44.1461 32.1226 43.828 32.4412 43.828 32.8337C43.828 33.2262 44.1466 33.5448 44.5391 33.5448Z" fill="white"/>
<path d="M44.5392 49.6428C45.0145 49.6428 45.4002 49.2577 45.4002 48.7819C45.4002 48.306 45.0145 47.9209 44.5392 47.9209C44.0639 47.9209 43.6782 48.3065 43.6782 48.7819C43.6782 49.2572 44.0639 49.6428 44.5392 49.6428Z" fill="white"/>
<path d="M44.5393 65.7224C45.0869 65.7224 45.5311 65.2782 45.5311 64.7306C45.5311 64.183 45.0874 63.7388 44.5393 63.7388C43.9917 63.7388 43.5475 64.183 43.5475 64.7306C43.5475 65.2782 43.9917 65.7224 44.5393 65.7224Z" fill="white"/>
<path d="M44.5392 81.7635C45.138 81.7635 45.6239 81.2782 45.6239 80.6789C45.6239 80.0801 45.1385 79.5942 44.5392 79.5942C43.9399 79.5942 43.4546 80.0796 43.4546 80.6789C43.4546 81.2777 43.9405 81.7635 44.5392 81.7635Z" fill="white"/>
<path d="M44.5392 97.7726C45.1717 97.7726 45.685 97.2599 45.685 96.6268C45.685 95.9943 45.1722 95.481 44.5392 95.481C43.9066 95.481 43.3933 95.9937 43.3933 96.6268C43.3933 97.2599 43.9066 97.7726 44.5392 97.7726Z" fill="white"/>
<path d="M44.5392 113.766C45.1975 113.766 45.7309 113.233 45.7309 112.575C45.7309 111.916 45.1975 111.383 44.5392 111.383C43.8808 111.383 43.3474 111.916 43.3474 112.575C43.3474 113.233 43.8813 113.766 44.5392 113.766Z" fill="white"/>
<path d="M44.5391 129.747C45.2149 129.747 45.7625 129.199 45.7625 128.523C45.7625 127.847 45.2149 127.299 44.5391 127.299C43.8633 127.299 43.3152 127.847 43.3152 128.523C43.3152 129.2 43.8633 129.747 44.5391 129.747Z" fill="white"/>
<path d="M44.5392 145.696C45.2157 145.696 45.7642 145.148 45.7642 144.471C45.7642 143.795 45.2157 143.246 44.5392 143.246C43.8626 143.246 43.3142 143.795 43.3142 144.471C43.3142 145.148 43.8626 145.696 44.5392 145.696Z" fill="white"/>
<path d="M44.5392 159.226C43.8797 159.226 43.3453 159.76 43.3453 160.419C43.3453 161.079 43.8797 161.613 44.5392 161.613C45.1986 161.613 45.733 161.079 45.733 160.419C45.733 159.76 45.1986 159.226 44.5392 159.226Z" fill="white"/>
<path d="M44.5392 175.22C43.9051 175.22 43.3912 175.734 43.3912 176.368C43.3912 177.002 43.9051 177.516 44.5392 177.516C45.1733 177.516 45.6871 177.002 45.6871 176.368C45.6871 175.733 45.1733 175.22 44.5392 175.22Z" fill="white"/>
<path d="M44.5392 191.229C43.9388 191.229 43.4519 191.716 43.4519 192.316C43.4519 192.917 43.9388 193.404 44.5392 193.404C45.1395 193.404 45.6265 192.917 45.6265 192.316C45.6265 191.716 45.1395 191.229 44.5392 191.229Z" fill="white"/>
<path d="M44.5392 207.269C43.9895 207.269 43.5437 207.715 43.5437 208.265C43.5437 208.814 43.9895 209.26 44.5392 209.26C45.0889 209.26 45.5347 208.814 45.5347 208.265C45.5347 207.715 45.0889 207.269 44.5392 207.269Z" fill="white"/>
<path d="M44.5392 225.076C45.0164 225.076 45.4033 224.69 45.4033 224.212C45.4033 223.735 45.0164 223.348 44.5392 223.348C44.0619 223.348 43.675 223.735 43.675 224.212C43.675 224.69 44.0619 225.076 44.5392 225.076Z" fill="white"/>
<path d="M44.5391 239.447C44.1445 239.447 43.8248 239.766 43.8248 240.161C43.8248 240.556 44.1445 240.875 44.5391 240.875C44.9337 240.875 45.2534 240.556 45.2534 240.161C45.2534 239.766 44.9337 239.447 44.5391 239.447Z" fill="white"/>
<path d="M33.5507 1.18721C33.6889 1.18721 33.8008 1.07536 33.8008 0.936618C33.8008 0.798399 33.6889 0.686035 33.5507 0.686035C33.4125 0.686035 33.3007 0.797871 33.3007 0.936618C33.3001 1.07536 33.4125 1.18721 33.5507 1.18721Z" fill="white"/>
<path d="M33.5508 17.3397C33.8019 17.3397 34.0056 17.136 34.0056 16.8849C34.0056 16.6338 33.8019 16.4302 33.5508 16.4302C33.2997 16.4302 33.0961 16.6338 33.0961 16.8849C33.0961 17.136 33.2992 17.3397 33.5508 17.3397Z" fill="white"/>
<path d="M33.5507 33.4508C33.8916 33.4508 34.1679 33.1744 34.1679 32.8336C34.1679 32.4927 33.8916 32.2163 33.5507 32.2163C33.2098 32.2163 32.9335 32.4927 32.9335 32.8336C32.9335 33.1744 33.2098 33.4508 33.5507 33.4508Z" fill="white"/>
<path d="M33.5508 49.5286C33.9634 49.5286 34.2973 49.1941 34.2973 48.7821C34.2973 48.3701 33.9628 48.0356 33.5508 48.0356C33.1388 48.0356 32.8043 48.3701 32.8043 48.7821C32.8043 49.1941 33.1383 49.5286 33.5508 49.5286Z" fill="white"/>
<path d="M33.5507 65.5922C34.0266 65.5922 34.4128 65.2066 34.4128 64.7302C34.4128 64.2538 34.0271 63.8682 33.5507 63.8682C33.0744 63.8682 32.6887 64.2543 32.6887 64.7302C32.6887 65.206 33.0744 65.5922 33.5507 65.5922Z" fill="white"/>
<path d="M33.5507 81.6212C34.0709 81.6212 34.4929 81.1992 34.4929 80.679C34.4929 80.1588 34.0709 79.7368 33.5507 79.7368C33.0306 79.7368 32.6085 80.1588 32.6085 80.679C32.608 81.1992 33.03 81.6212 33.5507 81.6212Z" fill="white"/>
<path d="M33.5508 97.6201C34.0994 97.6201 34.5447 97.1754 34.5447 96.6262C34.5447 96.0776 34.1 95.6323 33.5508 95.6323C33.0016 95.6323 32.5569 96.0771 32.5569 96.6262C32.5569 97.1754 33.0016 97.6201 33.5508 97.6201Z" fill="white"/>
<path d="M33.5508 113.609C34.1222 113.609 34.5849 113.146 34.5849 112.575C34.5849 112.004 34.1222 111.541 33.5508 111.541C32.98 111.541 32.5168 112.004 32.5168 112.575C32.5168 113.146 32.9795 113.609 33.5508 113.609Z" fill="white"/>
<path d="M33.5507 129.587C34.1379 129.587 34.6143 129.111 34.6143 128.524C34.6143 127.936 34.1379 127.46 33.5507 127.46C32.9636 127.46 32.4872 127.936 32.4872 128.524C32.4872 129.111 32.963 129.587 33.5507 129.587Z" fill="white"/>
<path d="M33.5507 145.537C34.139 145.537 34.6159 145.06 34.6159 144.471C34.6159 143.883 34.139 143.406 33.5507 143.406C32.9625 143.406 32.4856 143.883 32.4856 144.471C32.4856 145.06 32.9625 145.537 33.5507 145.537Z" fill="white"/>
<path d="M33.5508 159.383C32.979 159.383 32.5153 159.847 32.5153 160.419C32.5153 160.991 32.979 161.455 33.5508 161.455C34.1227 161.455 34.5864 160.991 34.5864 160.419C34.5864 159.848 34.1227 159.383 33.5508 159.383Z" fill="white"/>
<path d="M33.5507 177.364C34.1008 177.364 34.5467 176.918 34.5467 176.368C34.5467 175.818 34.1008 175.372 33.5507 175.372C33.0006 175.372 32.5547 175.818 32.5547 176.368C32.5547 176.918 33.0006 177.364 33.5507 177.364Z" fill="white"/>
<path d="M33.5508 193.261C34.0723 193.261 34.4951 192.838 34.4951 192.316C34.4951 191.795 34.0723 191.372 33.5508 191.372C33.0292 191.372 32.6064 191.795 32.6064 192.316C32.6064 192.838 33.0292 193.261 33.5508 193.261Z" fill="white"/>
<path d="M33.5508 207.399C33.0728 207.399 32.6851 207.786 32.6851 208.265C32.6851 208.743 33.0728 209.13 33.5508 209.13C34.0287 209.13 34.4165 208.743 34.4165 208.265C34.4165 207.786 34.0282 207.399 33.5508 207.399Z" fill="white"/>
<path d="M33.5508 224.962C33.9648 224.962 34.3004 224.627 34.3004 224.213C34.3004 223.799 33.9648 223.463 33.5508 223.463C33.1368 223.463 32.8011 223.799 32.8011 224.213C32.8011 224.627 33.1368 224.962 33.5508 224.962Z" fill="white"/>
<path d="M33.5508 239.541C33.2084 239.541 32.9309 239.819 32.9309 240.161C32.9309 240.503 33.2084 240.781 33.5508 240.781C33.8932 240.781 34.1707 240.503 34.1707 240.161C34.1707 239.819 33.8932 239.541 33.5508 239.541Z" fill="white"/>
<path d="M22.5618 1.14974C22.6789 1.14974 22.7739 1.05478 22.7739 0.937666C22.7739 0.82055 22.6789 0.725586 22.5618 0.725586C22.4447 0.725586 22.3497 0.82055 22.3497 0.937666C22.3497 1.05478 22.4447 1.14974 22.5618 1.14974Z" fill="white"/>
<path d="M22.5619 17.2713C22.775 17.2713 22.9476 17.0988 22.9476 16.8857C22.9476 16.6725 22.775 16.5 22.5619 16.5C22.3488 16.5 22.1763 16.6725 22.1763 16.8857C22.1763 17.0988 22.3488 17.2713 22.5619 17.2713Z" fill="white"/>
<path d="M22.5619 33.3572C22.851 33.3572 23.0852 33.123 23.0852 32.8339C23.0852 32.5448 22.851 32.3105 22.5619 32.3105C22.2728 32.3105 22.0386 32.5448 22.0386 32.8339C22.038 33.123 22.2728 33.3572 22.5619 33.3572Z" fill="white"/>
<path d="M22.5619 49.4145C22.9111 49.4145 23.1944 49.1312 23.1944 48.782C23.1944 48.4327 22.9111 48.1494 22.5619 48.1494C22.2126 48.1494 21.9293 48.4327 21.9293 48.782C21.9293 49.1317 22.2126 49.4145 22.5619 49.4145Z" fill="white"/>
<path d="M22.5618 65.4625C22.9665 65.4625 23.2941 65.1349 23.2941 64.7303C23.2941 64.3257 22.9665 63.998 22.5618 63.998C22.1572 63.998 21.8296 64.3257 21.8296 64.7303C21.8296 65.1349 22.1572 65.4625 22.5618 65.4625Z" fill="white"/>
<path d="M22.5619 81.4785C23.0034 81.4785 23.3616 81.1202 23.3616 80.6787C23.3616 80.2371 23.0034 79.8789 22.5619 79.8789C22.1203 79.8789 21.7621 80.2371 21.7621 80.6787C21.7621 81.1202 22.1203 81.4785 22.5619 81.4785Z" fill="white"/>
<path d="M22.5618 97.4681C23.0266 97.4681 23.4038 97.0915 23.4038 96.6262C23.4038 96.1614 23.0266 95.7842 22.5618 95.7842C22.097 95.7842 21.7198 96.1609 21.7198 96.6262C21.7198 97.0909 22.097 97.4681 22.5618 97.4681Z" fill="white"/>
<path d="M22.5618 113.451C23.0458 113.451 23.4381 113.059 23.4381 112.575C23.4381 112.091 23.0458 111.699 22.5618 111.699C22.0779 111.699 21.6855 112.091 21.6855 112.575C21.6855 113.059 22.0779 113.451 22.5618 113.451Z" fill="white"/>
<path d="M22.5619 129.427C23.0609 129.427 23.465 129.022 23.465 128.524C23.465 128.025 23.0604 127.621 22.5619 127.621C22.0628 127.621 21.6587 128.025 21.6587 128.524C21.6582 129.022 22.0628 129.427 22.5619 129.427Z" fill="white"/>
<path d="M22.562 145.376C23.0617 145.376 23.4667 144.971 23.4667 144.472C23.4667 143.972 23.0617 143.567 22.562 143.567C22.0623 143.567 21.6572 143.972 21.6572 144.472C21.6572 144.971 22.0623 145.376 22.562 145.376Z" fill="white"/>
<path d="M22.5619 161.298C23.0468 161.298 23.4398 160.905 23.4398 160.42C23.4398 159.935 23.0468 159.542 22.5619 159.542C22.0771 159.542 21.6841 159.935 21.6841 160.42C21.6841 160.905 22.0771 161.298 22.5619 161.298Z" fill="white"/>
<path d="M22.5618 177.212C23.0277 177.212 23.4054 176.834 23.4054 176.368C23.4054 175.902 23.0277 175.524 22.5618 175.524C22.0959 175.524 21.7183 175.902 21.7183 176.368C21.7183 176.834 22.0959 177.212 22.5618 177.212Z" fill="white"/>
<path d="M22.5619 191.515C22.1193 191.515 21.76 191.873 21.76 192.316C21.76 192.759 22.1187 193.118 22.5619 193.118C23.0045 193.118 23.3638 192.759 23.3638 192.316C23.3638 191.873 23.0045 191.515 22.5619 191.515Z" fill="white"/>
<path d="M22.5619 207.529C22.1557 207.529 21.8265 207.858 21.8265 208.264C21.8265 208.67 22.1557 209 22.5619 209C22.9682 209 23.2974 208.67 23.2974 208.264C23.2974 207.858 22.9682 207.529 22.5619 207.529Z" fill="white"/>
<path d="M22.5618 223.577C22.211 223.577 21.9266 223.861 21.9266 224.212C21.9266 224.563 22.211 224.847 22.5618 224.847C22.9126 224.847 23.197 224.563 23.197 224.212C23.197 223.861 22.9126 223.577 22.5618 223.577Z" fill="white"/>
<path d="M22.5618 239.635C22.2717 239.635 22.0364 239.871 22.0364 240.161C22.0364 240.452 22.2717 240.687 22.5618 240.687C22.852 240.687 23.0878 240.452 23.0878 240.161C23.0878 239.871 22.852 239.635 22.5618 239.635Z" fill="white"/>
<path d="M11.5729 1.11137C11.6689 1.11137 11.747 1.03329 11.747 0.937277C11.747 0.841262 11.6689 0.763184 11.5729 0.763184C11.4769 0.763184 11.3988 0.841262 11.3988 0.937277C11.3988 1.03382 11.4769 1.11137 11.5729 1.11137Z" fill="white"/>
<path d="M11.5729 17.203C11.7481 17.203 11.89 17.0611 11.89 16.8859C11.89 16.7108 11.7481 16.5688 11.5729 16.5688C11.3978 16.5688 11.2559 16.7108 11.2559 16.8859C11.2564 17.0611 11.3983 17.203 11.5729 17.203Z" fill="white"/>
<path d="M11.573 33.2631C11.8104 33.2631 12.0024 33.0706 12.0024 32.8337C12.0024 32.5963 11.8104 32.4043 11.573 32.4043C11.3356 32.4043 11.1436 32.5969 11.1436 32.8337C11.1436 33.0711 11.3361 33.2631 11.573 33.2631Z" fill="white"/>
<path d="M11.5729 49.2999C11.8594 49.2999 12.0915 49.0677 12.0915 48.7813C12.0915 48.4948 11.8594 48.2627 11.5729 48.2627C11.2864 48.2627 11.0543 48.4948 11.0543 48.7813C11.0543 49.0677 11.287 49.2999 11.5729 49.2999Z" fill="white"/>
<path d="M11.5729 65.3324C11.9058 65.3324 12.1754 65.0628 12.1754 64.7299C12.1754 64.397 11.9058 64.1274 11.5729 64.1274C11.24 64.1274 10.9705 64.397 10.9705 64.7299C10.9705 65.0628 11.24 65.3324 11.5729 65.3324Z" fill="white"/>
<path d="M11.573 81.3357C11.9359 81.3357 12.2303 81.0413 12.2303 80.6783C12.2303 80.3154 11.9359 80.021 11.573 80.021C11.21 80.021 10.9156 80.3154 10.9156 80.6783C10.9156 81.0413 11.21 81.3357 11.573 81.3357Z" fill="white"/>
<path d="M11.5729 97.316C11.9537 97.316 12.2624 97.0073 12.2624 96.6265C12.2624 96.2457 11.9537 95.937 11.5729 95.937C11.1921 95.937 10.8834 96.2457 10.8834 96.6265C10.8834 97.0073 11.1921 97.316 11.5729 97.316Z" fill="white"/>
<path d="M11.5729 113.293C11.9696 113.293 12.2909 112.971 12.2909 112.575C12.2909 112.179 11.9691 111.856 11.5729 111.856C11.1762 111.856 10.8544 112.178 10.8544 112.575C10.8544 112.972 11.1762 113.293 11.5729 113.293Z" fill="white"/>
<path d="M11.5729 129.266C11.9833 129.266 12.3162 128.934 12.3162 128.523C12.3162 128.113 11.9833 127.78 11.5729 127.78C11.1625 127.78 10.8296 128.113 10.8296 128.523C10.8296 128.934 11.1625 129.266 11.5729 129.266Z" fill="white"/>
<path d="M11.5729 145.216C11.984 145.216 12.3172 144.883 12.3172 144.471C12.3172 144.06 11.984 143.727 11.5729 143.727C11.1618 143.727 10.8285 144.06 10.8285 144.471C10.8285 144.883 11.1618 145.216 11.5729 145.216Z" fill="white"/>
<path d="M11.573 159.701C11.1752 159.701 10.8534 160.023 10.8534 160.42C10.8534 160.818 11.1757 161.14 11.573 161.14C11.9702 161.14 12.2926 160.818 12.2926 160.42C12.2926 160.022 11.9707 159.701 11.573 159.701Z" fill="white"/>
<path d="M11.5729 175.676C11.191 175.676 10.8818 175.986 10.8818 176.367C10.8818 176.749 11.191 177.058 11.5729 177.058C11.9549 177.058 12.264 176.749 12.264 176.367C12.264 175.986 11.9549 175.676 11.5729 175.676Z" fill="white"/>
<path d="M11.573 191.657C11.209 191.657 10.9141 191.952 10.9141 192.316C10.9141 192.68 11.209 192.975 11.573 192.975C11.937 192.975 12.2319 192.68 12.2319 192.316C12.2319 191.952 11.937 191.657 11.573 191.657Z" fill="white"/>
<path d="M11.573 207.659C11.2385 207.659 10.9679 207.93 10.9679 208.264C10.9679 208.598 11.2391 208.869 11.573 208.869C11.9069 208.869 12.1781 208.598 12.1781 208.264C12.1781 207.93 11.9075 207.659 11.573 207.659Z" fill="white"/>
<path d="M11.5729 223.692C11.2854 223.692 11.0522 223.926 11.0522 224.213C11.0522 224.501 11.2854 224.734 11.5729 224.734C11.8605 224.734 12.0936 224.501 12.0936 224.213C12.0936 223.926 11.8605 223.692 11.5729 223.692Z" fill="white"/>
<path d="M11.5729 239.729C11.3344 239.729 11.1414 239.923 11.1414 240.161C11.1414 240.399 11.3344 240.593 11.5729 240.593C11.8108 240.593 12.0044 240.399 12.0044 240.161C12.0044 239.923 11.8113 239.729 11.5729 239.729Z" fill="white"/>
<path d="M0.584559 1.07346C0.659471 1.07346 0.72014 1.01278 0.72014 0.937872C0.72014 0.86296 0.659471 0.801758 0.584559 0.801758C0.509647 0.801758 0.448978 0.862432 0.448978 0.937872C0.44845 1.01278 0.509119 1.07346 0.584559 1.07346Z" fill="white"/>
<path d="M0.584618 17.1331C0.721782 17.1331 0.832569 17.0223 0.832569 16.8852C0.832569 16.748 0.721782 16.6372 0.584618 16.6372C0.447455 16.6372 0.33667 16.748 0.33667 16.8852C0.33667 17.0223 0.447455 17.1331 0.584618 17.1331Z" fill="white"/>
<path d="M0.584585 33.1691C0.770283 33.1691 0.920636 33.0188 0.920636 32.8336C0.920636 32.6479 0.770283 32.4976 0.584585 32.4976C0.399414 32.4976 0.248535 32.6479 0.248535 32.8336C0.248535 33.0188 0.398886 33.1691 0.584585 33.1691Z" fill="white"/>
<path d="M0.584526 49.1866C0.80768 49.1866 0.988632 49.0057 0.988632 48.7825C0.988632 48.5594 0.80768 48.3784 0.584526 48.3784C0.361371 48.3784 0.180421 48.5594 0.180421 48.7825C0.179894 49.0057 0.360843 49.1866 0.584526 49.1866Z" fill="white"/>
<path d="M0.584626 65.2032C0.845765 65.2032 1.05731 64.9916 1.05731 64.7305C1.05731 64.4694 0.845765 64.2578 0.584626 64.2578C0.323488 64.2578 0.111939 64.4694 0.111939 64.7305C0.111412 64.9916 0.323488 65.2032 0.584626 65.2032Z" fill="white"/>
<path d="M0.584592 81.1934C0.868943 81.1934 1.09948 80.9628 1.09948 80.6785C1.09948 80.3941 0.868943 80.1636 0.584592 80.1636C0.300242 80.1636 0.0697021 80.3941 0.0697021 80.6785C0.0697021 80.9628 0.299714 81.1934 0.584592 81.1934Z" fill="white"/>
<path d="M0.584575 97.1645C0.881587 97.1645 1.12215 96.924 1.12215 96.6269C1.12215 96.3299 0.881587 96.0894 0.584575 96.0894C0.287562 96.0894 0.0469979 96.3299 0.0469979 96.6269C0.0464704 96.9234 0.287562 97.1645 0.584575 97.1645Z" fill="white"/>
<path d="M0.584553 113.135C0.894226 113.135 1.14481 112.884 1.14481 112.575C1.14481 112.266 0.893699 112.015 0.584553 112.015C0.27488 112.015 0.024292 112.266 0.024292 112.575C0.024292 112.884 0.27488 113.135 0.584553 113.135Z" fill="white"/>
<path d="M0.584532 129.106C0.906339 129.106 1.16748 128.845 1.16748 128.523C1.16748 128.202 0.906339 127.94 0.584532 127.94C0.262725 127.94 0.00158691 128.202 0.00158691 128.523C0.00158691 128.845 0.262198 129.106 0.584532 129.106Z" fill="white"/>
<path d="M0.584527 145.056C0.907353 145.056 1.16906 144.794 1.16906 144.471C1.16906 144.148 0.907353 143.887 0.584527 143.887C0.261701 143.887 0 144.148 0 144.471C0 144.794 0.261701 145.056 0.584527 145.056Z" fill="white"/>
<path d="M0.584548 160.982C0.894845 160.982 1.14639 160.73 1.14639 160.42C1.14639 160.109 0.894845 159.858 0.584548 159.858C0.27425 159.858 0.0227051 160.109 0.0227051 160.42C0.0227051 160.73 0.27425 160.982 0.584548 160.982Z" fill="white"/>
<path d="M0.58453 175.829C0.28699 175.829 0.0458984 176.07 0.0458984 176.368C0.0458984 176.665 0.28699 176.906 0.58453 176.906C0.882069 176.906 1.12316 176.665 1.12316 176.368C1.12316 176.07 0.882069 175.829 0.58453 175.829Z" fill="white"/>
<path d="M0.58455 191.8C0.299672 191.8 0.0686035 192.031 0.0686035 192.316C0.0686035 192.601 0.299672 192.832 0.58455 192.832C0.869429 192.832 1.1005 192.601 1.1005 192.316C1.1005 192.031 0.869429 191.8 0.58455 191.8Z" fill="white"/>
<path d="M0.584537 208.739C0.846761 208.739 1.05934 208.527 1.05934 208.264C1.05934 208.002 0.846761 207.79 0.584537 207.79C0.322314 207.79 0.109741 208.002 0.109741 208.264C0.109741 208.527 0.322314 208.739 0.584537 208.739Z" fill="white"/>
<path d="M0.58456 223.807C0.360351 223.807 0.178345 223.989 0.178345 224.213C0.178345 224.437 0.360351 224.619 0.58456 224.619C0.80877 224.619 0.990776 224.437 0.990776 224.213C0.990249 223.988 0.80877 223.807 0.58456 223.807Z" fill="white"/>
<path d="M0.584543 240.498C0.770721 240.498 0.921649 240.348 0.921649 240.161C0.921649 239.975 0.770721 239.824 0.584543 239.824C0.398364 239.824 0.247437 239.975 0.247437 240.161C0.247437 240.348 0.398364 240.498 0.584543 240.498Z" fill="white"/>
</g>
</svg>
